<?xml version="1.0" encoding="UTF-8"?>
<!DOCTYPE svg PUBLIC "-//W3C//DTD SVG 1.1//EN" "http://www.w3.org/Graphics/SVG/1.1/DTD/svg11.dtd">
<svg xmlns="http://www.w3.org/2000/svg" version="1.1" width="810px" height="159px" style="shape-rendering:geometricPrecision; text-rendering:geometricPrecision; image-rendering:optimizeQuality; fill-rule:evenodd; clip-rule:evenodd" xmlns:xlink="http://www.w3.org/1999/xlink">
<g><path style="opacity:0.999" fill="#050404" d="M 374.5,-0.5 C 382.167,-0.5 389.833,-0.5 397.5,-0.5C 398.167,2.16667 398.833,2.16667 399.5,-0.5C 401.167,-0.5 402.833,-0.5 404.5,-0.5C 405.6,0.60486 406.267,1.93819 406.5,3.5C 407.392,7.73812 408.892,11.7381 411,15.5C 412.441,16.2598 413.941,16.9264 415.5,17.5C 416.107,17.3764 416.44,17.0431 416.5,16.5C 416.833,16.5 417.167,16.5 417.5,16.5C 417.5,17.5 417.5,18.5 417.5,19.5C 419.965,19.767 422.299,20.4336 424.5,21.5C 425.959,21.4326 427.292,21.7659 428.5,22.5C 429.902,28.0318 433.235,29.5318 438.5,27C 439.252,26.3292 439.586,25.4959 439.5,24.5C 439.833,24.5 440.167,24.5 440.5,24.5C 441.949,26.1644 443.949,26.9977 446.5,27C 448.37,29.0396 450.37,30.8729 452.5,32.5C 453.34,34.8525 454.674,36.8525 456.5,38.5C 456.893,40.2838 457.559,41.9505 458.5,43.5C 457.59,45.0188 456.757,46.6854 456,48.5C 452.87,50.628 450.037,53.128 447.5,56C 442.998,57.3173 438.998,58.8173 435.5,60.5C 432.22,56.5597 429.386,52.2264 427,47.5C 426.184,46.1772 425.017,45.5106 423.5,45.5C 423.489,43.9826 422.823,42.8159 421.5,42C 415.333,36.6715 408.333,32.8382 400.5,30.5C 399.893,30.6236 399.56,30.9569 399.5,31.5C 397.5,31.5 395.5,31.5 393.5,31.5C 392.129,30.2132 390.295,29.5465 388,29.5C 385.705,29.5465 383.871,30.2132 382.5,31.5C 381.833,31.5 381.167,31.5 380.5,31.5C 380.631,30.6236 380.298,29.9569 379.5,29.5C 377.224,30.2132 374.891,30.7132 372.5,31C 371.177,31.8159 370.511,32.9826 370.5,34.5C 370.167,34.5 369.833,34.5 369.5,34.5C 369.631,33.6236 369.298,32.9569 368.5,32.5C 363.033,34.8831 358.367,38.2165 354.5,42.5C 345.645,49.3559 340.645,58.3559 339.5,69.5C 339.5,71.1667 339.5,72.8333 339.5,74.5C 338.223,75.6936 337.556,77.3603 337.5,79.5C 337.556,81.6397 338.223,83.3064 339.5,84.5C 339.5,86.1667 339.5,87.8333 339.5,89.5C 339.978,95.2645 341.645,100.598 344.5,105.5C 345.028,106.847 345.195,108.181 345,109.5C 343.951,108.483 342.784,108.316 341.5,109C 338.465,112.017 334.799,113.683 330.5,114C 328.991,117.246 326.657,118.579 323.5,118C 322.483,119.049 322.316,120.216 323,121.5C 325.847,120.494 328.681,119.494 331.5,118.5C 331.119,116.058 331.786,115.391 333.5,116.5C 337.115,114.722 340.615,112.722 344,110.5C 344.5,110.833 345,111.167 345.5,111.5C 344.619,112.971 343.286,113.804 341.5,114C 341.957,114.414 342.291,114.914 342.5,115.5C 341.349,116.731 340.183,116.731 339,115.5C 335.922,118.292 332.422,120.458 328.5,122C 326.808,123.307 325.475,124.807 324.5,126.5C 320.372,121.356 317.039,115.689 314.5,109.5C 313.586,106.272 313.253,102.939 313.5,99.5C 313.5,99.1667 313.5,98.8333 313.5,98.5C 318.1,96.8802 320.433,93.5468 320.5,88.5C 320.5,82.8333 320.5,77.1667 320.5,71.5C 320.701,66.8541 318.867,63.1875 315,60.5C 312.787,54.5318 313.454,48.8652 317,43.5C 318.841,39.8168 321.174,36.4835 324,33.5C 324.483,32.552 324.649,31.552 324.5,30.5C 324.5,30.1667 324.5,29.8333 324.5,29.5C 326.027,29.573 327.027,28.9063 327.5,27.5C 331.136,26.1732 334.803,26.1732 338.5,27.5C 339.298,27.0431 339.631,26.3764 339.5,25.5C 339.833,25.5 340.167,25.5 340.5,25.5C 340.791,26.6491 341.624,27.3158 343,27.5C 345.215,27.1004 347.048,26.1004 348.5,24.5C 353.327,20.917 358.661,18.0837 364.5,16C 366.777,12.0475 368.61,7.88087 370,3.5C 371.356,2.61983 372.856,2.28649 374.5,2.5C 374.5,1.5 374.5,0.5 374.5,-0.5 Z"/></g>
<g><path style="opacity:0.6" fill="#6f6363" d="M 397.5,-0.5 C 398.167,-0.5 398.833,-0.5 399.5,-0.5C 398.833,2.16667 398.167,2.16667 397.5,-0.5 Z"/></g>
<g><path style="opacity:0.243" fill="#706565" d="M 406.5,3.5 C 407.497,3.47008 408.164,3.97008 408.5,5C 409.39,10.3464 412.056,14.1797 416.5,16.5C 416.44,17.0431 416.107,17.3764 415.5,17.5C 413.941,16.9264 412.441,16.2598 411,15.5C 408.892,11.7381 407.392,7.73812 406.5,3.5 Z"/></g>
<g><path style="opacity:0.276" fill="#655a5a" d="M 370.5,-0.5 C 371.833,-0.5 373.167,-0.5 374.5,-0.5C 374.5,0.5 374.5,1.5 374.5,2.5C 372.856,2.28649 371.356,2.61983 370,3.5C 368.61,7.88087 366.777,12.0475 364.5,16C 358.661,18.0837 353.327,20.917 348.5,24.5C 347.508,24.6716 346.842,24.3382 346.5,23.5C 351.777,19.9484 357.443,16.9484 363.5,14.5C 366.024,9.59684 368.357,4.59684 370.5,-0.5 Z"/></g>
<g><path style="opacity:0.427" fill="#5c5151" d="M 417.5,16.5 C 420.439,17.456 422.772,19.1226 424.5,21.5C 422.299,20.4336 419.965,19.767 417.5,19.5C 417.5,18.5 417.5,17.5 417.5,16.5 Z"/></g>
<g><path style="opacity:0.784" fill="#453e3e" d="M 339.5,25.5 C 339.631,26.3764 339.298,27.0431 338.5,27.5C 334.803,26.1732 331.136,26.1732 327.5,27.5C 327.577,26.2502 328.244,25.4169 329.5,25C 332.924,24.2534 336.257,24.42 339.5,25.5 Z"/></g>
<g><path style="opacity:0.051" fill="#625858" d="M 440.5,24.5 C 447.06,23.5396 451.06,26.2062 452.5,32.5C 450.37,30.8729 448.37,29.0396 446.5,27C 443.949,26.9977 441.949,26.1644 440.5,24.5 Z"/></g>
<g><path style="opacity:0.063" fill="#a89797" d="M 463.5,19.5 C 464.814,21.9151 465.481,24.7485 465.5,28C 465.167,30.8333 464.833,33.6667 464.5,36.5C 463.522,36.0233 462.689,35.3567 462,34.5C 461.019,29.2499 461.519,24.2499 463.5,19.5 Z"/></g>
<g><path style="opacity:0.486" fill="#373131" d="M 346.5,23.5 C 346.842,24.3382 347.508,24.6716 348.5,24.5C 347.048,26.1004 345.215,27.1004 343,27.5C 341.624,27.3158 340.791,26.6491 340.5,25.5C 342.858,25.7475 344.858,25.0808 346.5,23.5 Z"/></g>
<g><path style="opacity:0.561" fill="#453d3d" d="M 428.5,22.5 C 431.595,25.6288 435.261,26.2955 439.5,24.5C 439.586,25.4959 439.252,26.3292 438.5,27C 433.235,29.5318 429.902,28.0318 428.5,22.5 Z"/></g>
<g><path style="opacity:0.125" fill="#7c7070" d="M 327.5,27.5 C 327.027,28.9063 326.027,29.573 324.5,29.5C 324.973,28.0937 325.973,27.427 327.5,27.5 Z"/></g>
<g><path style="opacity:0.212" fill="#453f3f" d="M 380.5,31.5 C 377.28,32.7476 373.947,33.7476 370.5,34.5C 370.511,32.9826 371.177,31.8159 372.5,31C 374.891,30.7132 377.224,30.2132 379.5,29.5C 380.298,29.9569 380.631,30.6236 380.5,31.5 Z"/></g>
<g><path style="opacity:0.047" fill="#736666" d="M 393.5,31.5 C 392.833,31.5 392.167,31.5 391.5,31.5C 391.167,31.5 390.833,31.5 390.5,31.5C 388.481,30.2203 387.148,30.2203 386.5,31.5C 386.289,33.4241 385.623,33.7574 384.5,32.5C 384.158,31.6618 383.492,31.3284 382.5,31.5C 383.871,30.2132 385.705,29.5465 388,29.5C 390.295,29.5465 392.129,30.2132 393.5,31.5 Z"/></g>
<g><path style="opacity:0.076" fill="#534a4a" d="M 423.5,45.5 C 416.179,39.4782 408.179,34.8115 399.5,31.5C 399.56,30.9569 399.893,30.6236 400.5,30.5C 408.333,32.8382 415.333,36.6715 421.5,42C 422.823,42.8159 423.489,43.9826 423.5,45.5 Z"/></g>
<g><path style="opacity:0.643" fill="#393333" d="M 386.5,31.5 C 387.833,31.5 389.167,31.5 390.5,31.5C 390.833,31.5 391.167,31.5 391.5,31.5C 391.833,32.1667 392.167,32.8333 392.5,33.5C 392.5,34.1667 392.5,34.8333 392.5,35.5C 389.5,34.1667 386.5,34.1667 383.5,35.5C 383.5,34.8333 383.5,34.1667 383.5,33.5C 383.5,32.8333 383.833,32.5 384.5,32.5C 385.623,33.7574 386.289,33.4241 386.5,31.5 Z"/></g>
<g><path style="opacity:0.02" fill="#413a3a" d="M 369.5,34.5 C 364.661,36.4157 360.328,39.0824 356.5,42.5C 355.833,42.5 355.167,42.5 354.5,42.5C 358.367,38.2165 363.033,34.8831 368.5,32.5C 369.298,32.9569 369.631,33.6236 369.5,34.5 Z"/></g>
<g><path style="opacity:0.192" fill="#695e5e" d="M 452.5,32.5 C 455.034,33.6338 456.367,35.6338 456.5,38.5C 454.674,36.8525 453.34,34.8525 452.5,32.5 Z"/></g>
<g><path style="opacity:0.122" fill="#988888" d="M 383.5,33.5 C 383.5,34.1667 383.5,34.8333 383.5,35.5C 382.5,35.8333 381.833,36.5 381.5,37.5C 380.833,38.1667 380.167,38.8333 379.5,39.5C 379.347,36.4647 380.68,34.4647 383.5,33.5 Z"/></g>
<g><path style="opacity:0.149" fill="#7b6e6e" d="M 456.5,38.5 C 458.408,39.4856 459.408,41.1523 459.5,43.5C 459.167,43.5 458.833,43.5 458.5,43.5C 457.559,41.9505 456.893,40.2838 456.5,38.5 Z"/></g>
<g><path style="opacity:0.067" fill="#766a6a" d="M 392.5,33.5 C 394.257,34.0843 395.59,35.251 396.5,37C 397.05,40.3242 397.717,43.4909 398.5,46.5C 397.791,47.404 396.791,47.7373 395.5,47.5C 395.665,44.1501 395.498,40.8168 395,37.5C 394.292,36.6195 393.458,35.9528 392.5,35.5C 392.5,34.8333 392.5,34.1667 392.5,33.5 Z"/></g>
<g><path style="opacity:0.248" fill="#3d3737" d="M 517.5,45.5 C 516.5,45.5 515.5,45.5 514.5,45.5C 498.675,44.5036 482.675,44.1703 466.5,44.5C 466.5,47.1667 466.5,49.8333 466.5,52.5C 465.521,49.3752 465.187,46.0419 465.5,42.5C 482.833,42.5 500.167,42.5 517.5,42.5C 517.5,43.5 517.5,44.5 517.5,45.5 Z"/></g>
<g><path style="opacity:0.248" fill="#443d3d" d="M 554.5,42.5 C 558.042,42.1872 561.375,42.5206 564.5,43.5C 564.5,44.1667 564.5,44.8333 564.5,45.5C 561.167,44.1667 557.833,44.1667 554.5,45.5C 554.5,44.5 554.5,43.5 554.5,42.5 Z"/></g>
<g><path style="opacity:0.247" fill="#3a3434" d="M 653.5,42.5 C 653.5,45.8333 653.5,49.1667 653.5,52.5C 653.167,52.5 652.833,52.5 652.5,52.5C 652.5,51.5 652.5,50.5 652.5,49.5C 652.5,48.1667 652.5,46.8333 652.5,45.5C 636.5,45.5 620.5,45.5 604.5,45.5C 603.532,47.6074 603.198,49.9407 603.5,52.5C 601.598,49.6627 600.931,46.3293 601.5,42.5C 618.833,42.5 636.167,42.5 653.5,42.5 Z"/></g>
<g><path style="opacity:0.248" fill="#3c3636" d="M 722.5,42.5 C 724.833,42.5 727.167,42.5 729.5,42.5C 729.5,43.1667 729.5,43.8333 729.5,44.5C 727.05,44.298 724.717,44.6314 722.5,45.5C 722.5,44.5 722.5,43.5 722.5,42.5 Z"/></g>
<g><path style="opacity:0.999" fill="#050404" d="M 458.5,43.5 C 458.833,43.5 459.167,43.5 459.5,43.5C 460.129,46.3973 461.129,49.064 462.5,51.5C 462.5,54.1667 462.5,56.8333 462.5,59.5C 460.554,60.0347 459.554,61.368 459.5,63.5C 459.5,64.1667 459.167,64.5 458.5,64.5C 457.5,64.5 456.5,64.5 455.5,64.5C 455.38,66.1986 455.046,67.8653 454.5,69.5C 454.747,70.7133 455.414,71.38 456.5,71.5C 456.5,73.1667 456.5,74.8333 456.5,76.5C 456.5,78.5 456.5,80.5 456.5,82.5C 456.5,84.8333 456.5,87.1667 456.5,89.5C 455.402,90.6009 455.235,91.9343 456,93.5C 457.728,96.3297 459.895,98.663 462.5,100.5C 462.453,103.568 461.953,106.568 461,109.5C 459.008,113.308 457.508,117.308 456.5,121.5C 454.018,122.663 452.684,124.663 452.5,127.5C 452.5,127.833 452.5,128.167 452.5,128.5C 451.325,128.281 450.325,128.614 449.5,129.5C 447.364,130.969 446.03,132.969 445.5,135.5C 444.5,135.5 443.5,135.5 442.5,135.5C 442.5,134.5 442.5,133.5 442.5,132.5C 440.738,132.643 439.071,132.309 437.5,131.5C 436.702,131.957 436.369,132.624 436.5,133.5C 435.833,133.5 435.167,133.5 434.5,133.5C 434.157,131.775 433.157,131.275 431.5,132C 429.561,132.908 428.561,134.408 428.5,136.5C 426.784,138.025 424.784,139.025 422.5,139.5C 422.44,138.957 422.107,138.624 421.5,138.5C 418.495,140.671 415.161,142.171 411.5,143C 409.781,144.87 408.781,147.037 408.5,149.5C 408.598,151.553 407.931,153.22 406.5,154.5C 405.167,155.833 403.833,157.167 402.5,158.5C 394.167,158.5 385.833,158.5 377.5,158.5C 374.431,158.015 371.764,156.681 369.5,154.5C 369.5,153.167 368.833,152.5 367.5,152.5C 367.5,152.167 367.5,151.833 367.5,151.5C 367.233,149.035 366.566,146.701 365.5,144.5C 360.771,141.738 355.771,139.238 350.5,137C 348.53,134.684 346.196,132.851 343.5,131.5C 342.287,131.747 341.62,132.414 341.5,133.5C 340.833,133.5 340.167,133.5 339.5,133.5C 337.735,132.539 335.735,132.205 333.5,132.5C 333.5,133.5 333.5,134.5 333.5,135.5C 331.517,135.843 330.183,135.176 329.5,133.5C 327.445,131.445 325.779,129.112 324.5,126.5C 325.475,124.807 326.808,123.307 328.5,122C 332.422,120.458 335.922,118.292 339,115.5C 340.183,116.731 341.349,116.731 342.5,115.5C 342.291,114.914 341.957,114.414 341.5,114C 343.286,113.804 344.619,112.971 345.5,111.5C 345,111.167 344.5,110.833 344,110.5C 340.615,112.722 337.115,114.722 333.5,116.5C 331.786,115.391 331.119,116.058 331.5,118.5C 328.681,119.494 325.847,120.494 323,121.5C 322.316,120.216 322.483,119.049 323.5,118C 326.657,118.579 328.991,117.246 330.5,114C 334.799,113.683 338.465,112.017 341.5,109C 342.784,108.316 343.951,108.483 345,109.5C 345.195,108.181 345.028,106.847 344.5,105.5C 345.833,106.833 347.167,108.167 348.5,109.5C 348.675,111.844 349.842,113.511 352,114.5C 352.464,113.906 352.631,113.239 352.5,112.5C 353.401,113.29 354.068,114.29 354.5,115.5C 356.239,118.41 358.572,120.91 361.5,123C 362.816,123.528 363.483,123.028 363.5,121.5C 363.833,121.5 364.167,121.5 364.5,121.5C 364.657,125.273 366.324,126.273 369.5,124.5C 369.833,124.5 370.167,124.5 370.5,124.5C 370.511,126.017 371.177,127.184 372.5,128C 374.712,128.789 376.712,128.622 378.5,127.5C 379.5,127.5 380.5,127.5 381.5,127.5C 381.414,128.496 381.748,129.329 382.5,130C 386.358,130.81 390.024,130.643 393.5,129.5C 393.5,128.833 393.5,128.167 393.5,127.5C 395.5,127.5 397.5,127.5 399.5,127.5C 399.735,128.097 400.235,128.43 401,128.5C 404.363,126.934 407.863,125.768 411.5,125C 413.407,123.931 414.741,122.431 415.5,120.5C 418.989,119.687 421.656,117.687 423.5,114.5C 426.461,112.588 428.461,109.921 429.5,106.5C 430.906,106.027 431.573,105.027 431.5,103.5C 433.241,101.605 434.241,99.2718 434.5,96.5C 434.5,96.1667 434.5,95.8333 434.5,95.5C 435.117,95.3893 435.617,95.056 436,94.5C 437.222,89.3928 438.055,84.2261 438.5,79C 437.339,72.8667 436.339,66.7 435.5,60.5C 438.998,58.8173 442.998,57.3173 447.5,56C 450.037,53.128 452.87,50.628 456,48.5C 456.757,46.6854 457.59,45.0188 458.5,43.5 Z"/></g>
<g><path style="opacity:0.541" fill="#6c6161" d="M 765.5,41.5 C 765.631,42.2389 765.464,42.9056 765,43.5C 763.698,44.0848 762.531,44.7515 761.5,45.5C 759.952,45.1788 759.285,44.1788 759.5,42.5C 761.565,42.4828 763.565,42.1495 765.5,41.5 Z"/></g>
<g><path style="opacity:0.973" fill="#2a2626" d="M 765.5,41.5 C 768.833,41.5 772.167,41.5 775.5,41.5C 776.694,42.2719 777.694,43.2719 778.5,44.5C 772.797,44.3748 767.13,44.7081 761.5,45.5C 762.531,44.7515 763.698,44.0848 765,43.5C 765.464,42.9056 765.631,42.2389 765.5,41.5 Z"/></g>
<g><path style="opacity:0.514" fill="#675d5d" d="M 775.5,41.5 C 781.765,41.4787 787.431,43.1454 792.5,46.5C 792.5,47.1667 792.5,47.8333 792.5,48.5C 788.289,45.7651 783.622,44.4318 778.5,44.5C 777.694,43.2719 776.694,42.2719 775.5,41.5 Z"/></g>
<g><path style="opacity:0.566" fill="#3f3838" d="M 0.5,45.5 C 3.5,45.5 6.5,45.5 9.5,45.5C 9.5,46.5 9.5,47.5 9.5,48.5C 9.5,49.1667 9.5,49.8333 9.5,50.5C 8.75147,49.469 8.0848,48.3024 7.5,47C 5.5273,46.5045 3.5273,46.3379 1.5,46.5C 1.5,47.8333 1.5,49.1667 1.5,50.5C 0.548855,49.0813 0.215521,47.4147 0.5,45.5 Z"/></g>
<g><path style="opacity:0.565" fill="#3a3434" d="M 96.5,45.5 C 98.8333,45.5 101.167,45.5 103.5,45.5C 103.5,45.8333 103.5,46.1667 103.5,46.5C 101.473,46.3379 99.4727,46.5045 97.5,47C 96.5783,49.294 95.5783,51.4606 94.5,53.5C 94.5,52.1667 94.5,50.8333 94.5,49.5C 95.3446,48.3285 96.0113,46.9952 96.5,45.5 Z"/></g>
<g><path style="opacity:0.565" fill="#3d3636" d="M 186.5,45.5 C 198.5,45.5 210.5,45.5 222.5,45.5C 222.5,46.5 222.5,47.5 222.5,48.5C 210.511,46.3718 198.511,46.0385 186.5,47.5C 186.5,46.8333 186.5,46.1667 186.5,45.5 Z"/></g>
<g><path style="opacity:1" fill="#1c1a1a" d="M 514.5,45.5 C 500.801,45.2161 487.135,45.7161 473.5,47C 472.5,47.3333 471.5,47.6667 470.5,48C 470.833,48.3333 471.167,48.6667 471.5,49C 475.833,49.3333 480.167,49.6667 484.5,50C 485.737,50.2321 486.737,50.7321 487.5,51.5C 486.508,51.3284 485.842,51.6618 485.5,52.5C 482.5,52.5 479.5,52.5 476.5,52.5C 476.38,51.4138 475.713,50.7472 474.5,50.5C 473.287,50.7472 472.62,51.4138 472.5,52.5C 470.5,52.5 468.5,52.5 466.5,52.5C 466.5,49.8333 466.5,47.1667 466.5,44.5C 482.675,44.1703 498.675,44.5036 514.5,45.5 Z"/></g>
<g><path style="opacity:0.137" fill="#b3a1a1" d="M 564.5,43.5 C 566.047,44.7682 567.047,46.4348 567.5,48.5C 566.833,48.5 566.167,48.5 565.5,48.5C 565.737,47.209 565.404,46.209 564.5,45.5C 564.5,44.8333 564.5,44.1667 564.5,43.5 Z"/></g>
<g><path style="opacity:1" fill="#090808" d="M 729.5,44.5 C 729.833,60.5139 729.499,76.5139 728.5,92.5C 727.261,99.7208 723.928,105.721 718.5,110.5C 716.545,110.799 715.211,111.799 714.5,113.5C 713.833,113.5 713.167,113.5 712.5,113.5C 711.391,113.557 710.391,113.89 709.5,114.5C 708.833,114.5 708.167,114.5 707.5,114.5C 703.833,114.5 700.167,114.5 696.5,114.5C 693.14,114.384 689.807,114.051 686.5,113.5C 685.493,111.478 683.826,110.145 681.5,109.5C 676.21,105.171 673.544,99.5038 673.5,92.5C 673.5,76.8333 673.5,61.1667 673.5,45.5C 674.833,45.5 676.167,45.5 677.5,45.5C 677.171,60.0097 677.504,74.3431 678.5,88.5C 678.833,88.5 679.167,88.5 679.5,88.5C 679.837,97.2117 683.837,103.545 691.5,107.5C 692.107,107.376 692.44,107.043 692.5,106.5C 693.167,106.5 693.833,106.5 694.5,106.5C 694.414,107.496 694.748,108.329 695.5,109C 698.833,109.667 702.167,109.667 705.5,109C 706.252,108.329 706.586,107.496 706.5,106.5C 707.609,106.443 708.609,106.11 709.5,105.5C 709.369,106.376 709.702,107.043 710.5,107.5C 716.743,104.347 720.576,99.3471 722,92.5C 722.5,76.8369 722.667,61.1702 722.5,45.5C 724.717,44.6314 727.05,44.298 729.5,44.5 Z"/></g>
<g><path style="opacity:0.933" fill="#282424" d="M 121.5,45.5 C 135.833,45.5 150.167,45.5 164.5,45.5C 164.5,46.1667 164.5,46.8333 164.5,47.5C 150.167,47.5 135.833,47.5 121.5,47.5C 121.5,46.8333 121.5,46.1667 121.5,45.5 Z"/></g>
<g><path style="opacity:0.306" fill="#776a6a" d="M 459.5,43.5 C 461.655,45.6174 462.655,48.284 462.5,51.5C 461.129,49.064 460.129,46.3973 459.5,43.5 Z"/></g>
<g><path style="opacity:1" fill="#020202" d="M 514.5,45.5 C 515.5,45.5 516.5,45.5 517.5,45.5C 517.5,46.8333 517.5,48.1667 517.5,49.5C 509.208,50.4071 500.875,50.7404 492.5,50.5C 492.5,71.1667 492.5,91.8333 492.5,112.5C 490.833,112.5 489.167,112.5 487.5,112.5C 487.5,92.1667 487.5,71.8333 487.5,51.5C 486.737,50.7321 485.737,50.2321 484.5,50C 480.167,49.6667 475.833,49.3333 471.5,49C 471.167,48.6667 470.833,48.3333 470.5,48C 471.5,47.6667 472.5,47.3333 473.5,47C 487.135,45.7161 500.801,45.2161 514.5,45.5 Z"/></g>
<g><path style="opacity:1" fill="#020202" d="M 604.5,45.5 C 620.5,45.5 636.5,45.5 652.5,45.5C 652.5,46.8333 652.5,48.1667 652.5,49.5C 645.442,49.203 638.442,49.5363 631.5,50.5C 630.5,71.4894 630.167,92.4894 630.5,113.5C 629.167,113.5 627.833,113.5 626.5,113.5C 626.833,92.4894 626.5,71.4894 625.5,50.5C 618.558,49.5363 611.558,49.203 604.5,49.5C 604.5,48.1667 604.5,46.8333 604.5,45.5 Z"/></g>
<g><path style="opacity:0.165" fill="#7a6e6e" d="M 653.5,42.5 C 654.496,42.4142 655.329,42.7476 656,43.5C 656.667,46.1667 656.667,48.8333 656,51.5C 655.329,52.2524 654.496,52.5858 653.5,52.5C 653.5,49.1667 653.5,45.8333 653.5,42.5 Z"/></g>
<g><path style="opacity:0.102" fill="#ab9999" d="M 722.5,42.5 C 722.5,43.5 722.5,44.5 722.5,45.5C 721.833,59.8333 721.167,74.1667 720.5,88.5C 719.849,72.7969 720.516,57.4636 722.5,42.5 Z"/></g>
<g><path style="opacity:0.444" fill="#948585" d="M 729.5,42.5 C 730.117,42.6107 730.617,42.944 731,43.5C 731.744,60.5178 731.577,77.5178 730.5,94.5C 729.167,94.5 728.5,95.1667 728.5,96.5C 727.894,103.42 724.56,108.42 718.5,111.5C 718.5,111.167 718.5,110.833 718.5,110.5C 723.928,105.721 727.261,99.7208 728.5,92.5C 729.499,76.5139 729.833,60.5139 729.5,44.5C 729.5,43.8333 729.5,43.1667 729.5,42.5 Z"/></g>
<g><path style="opacity:0.471" fill="#655b5b" d="M 758.5,44.5 C 755.535,47.3237 753.035,50.657 751,54.5C 750.329,55.2524 749.496,55.5858 748.5,55.5C 749.659,54.2283 750.659,52.2283 751.5,49.5C 753.29,47.0392 755.623,45.3726 758.5,44.5 Z"/></g>
<g><path style="opacity:0.275" fill="#938484" d="M 96.5,45.5 C 96.0113,46.9952 95.3446,48.3285 94.5,49.5C 94.1568,47.5168 94.8235,46.1834 96.5,45.5 Z"/></g>
<g><path style="opacity:1" fill="#0a0909" d="M 121.5,47.5 C 135.833,47.5 150.167,47.5 164.5,47.5C 164.5,48.8333 164.5,50.1667 164.5,51.5C 156.16,51.3336 147.827,51.5003 139.5,52C 136.325,51.9467 133.658,52.78 131.5,54.5C 131.167,54.5 130.833,54.5 130.5,54.5C 129.883,54.3893 129.383,54.056 129,53.5C 128.5,60.8258 128.334,68.1591 128.5,75.5C 139.451,77.4777 150.784,78.1444 162.5,77.5C 162.5,79.5 162.5,81.5 162.5,83.5C 151.167,83.5 139.833,83.5 128.5,83.5C 128.5,92.5 128.5,101.5 128.5,110.5C 140.655,111.495 152.989,111.829 165.5,111.5C 165.5,113.167 165.5,114.833 165.5,116.5C 150.833,116.5 136.167,116.5 121.5,116.5C 121.5,93.5 121.5,70.5 121.5,47.5 Z"/></g>
<g><path style="opacity:0.999" fill="#0b0a0a" d="M 222.5,48.5 C 233.439,53.1423 236.606,61.1423 232,72.5C 230.145,74.3551 228.312,76.1884 226.5,78C 229.645,80.3108 232.645,82.8108 235.5,85.5C 236.6,86.6049 237.267,87.9382 237.5,89.5C 238.162,93.4659 238.495,97.4659 238.5,101.5C 234.901,110.327 228.234,115.327 218.5,116.5C 207.833,116.5 197.167,116.5 186.5,116.5C 186.5,93.5 186.5,70.5 186.5,47.5C 198.511,46.0385 210.511,46.3718 222.5,48.5 Z M 195.5,54.5 C 202.5,54.5 209.5,54.5 216.5,54.5C 220.456,55.4613 223.123,57.7947 224.5,61.5C 224.568,65.5704 223.568,69.237 221.5,72.5C 220.527,72.9867 219.527,73.4867 218.5,74C 210.841,74.4997 203.174,74.6664 195.5,74.5C 195.5,67.8333 195.5,61.1667 195.5,54.5 Z M 195.5,84.5 C 203.808,84.5558 211.808,84.5558 219.5,84.5C 221.701,85.5664 224.035,86.233 226.5,86.5C 227.344,89.2545 228.344,91.9212 229.5,94.5C 229.5,96.1667 229.5,97.8333 229.5,99.5C 228.17,101.829 226.836,104.163 225.5,106.5C 225.167,106.5 224.833,106.5 224.5,106.5C 223.167,106.5 222.5,107.167 222.5,108.5C 221.5,108.5 220.5,108.5 219.5,108.5C 211.889,109.434 204.222,109.767 196.5,109.5C 196.167,109.5 195.833,109.5 195.5,109.5C 195.5,101.167 195.5,92.8333 195.5,84.5 Z"/></g>
<g><path style="opacity:0.241" fill="#867878" d="M 164.5,45.5 C 165.765,46.5145 166.431,48.0145 166.5,50C 166.431,51.9855 165.765,53.4855 164.5,54.5C 164.5,53.5 164.5,52.5 164.5,51.5C 164.5,50.1667 164.5,48.8333 164.5,47.5C 164.5,46.8333 164.5,46.1667 164.5,45.5 Z"/></g>
<g><path style="opacity:0.243" fill="#4f4848" d="M 381.5,37.5 C 381.665,40.5184 381.498,43.5184 381,46.5C 374.442,48.5698 369.609,52.5698 366.5,58.5C 366.833,57.1667 367.167,55.8333 367.5,54.5C 369.932,50.0745 373.599,47.0745 378.5,45.5C 379.466,43.604 379.799,41.604 379.5,39.5C 380.167,38.8333 380.833,38.1667 381.5,37.5 Z"/></g>
<g><path style="opacity:0.141" fill="#9a8a8a" d="M 792.5,46.5 C 794.377,47.6591 794.877,49.3258 794,51.5C 793.124,53.6355 791.624,54.9688 789.5,55.5C 789.5,54.8333 789.5,54.1667 789.5,53.5C 791.25,52.3406 792.25,50.674 792.5,48.5C 792.5,47.8333 792.5,47.1667 792.5,46.5 Z"/></g>
<g><path style="opacity:1" fill="#0d0c0c" d="M 48.5,45.5 C 50.8333,45.5 53.1667,45.5 55.5,45.5C 57.5949,53.7846 60.2615,61.7846 63.5,69.5C 63.6744,72.8738 64.1744,76.2072 65,79.5C 68.4798,89.4253 71.6465,99.4253 74.5,109.5C 75.5,109.5 76.5,109.5 77.5,109.5C 81.499,96.189 85.499,82.8556 89.5,69.5C 90.4582,67.6976 91.1249,65.6976 91.5,63.5C 92.5033,60.1503 93.5033,56.817 94.5,53.5C 95.5783,51.4606 96.5783,49.294 97.5,47C 99.4727,46.5045 101.473,46.3379 103.5,46.5C 101.034,53.3651 99.0337,60.3651 97.5,67.5C 96.5957,72.1093 94.929,76.4427 92.5,80.5C 91.134,83.9606 90.134,87.6273 89.5,91.5C 89.5,91.8333 89.5,92.1667 89.5,92.5C 87.5275,95.0836 86.5275,98.0836 86.5,101.5C 86.5,101.833 86.5,102.167 86.5,102.5C 85.8826,102.611 85.3826,102.944 85,103.5C 84.1621,106.852 83.3288,110.185 82.5,113.5C 82.573,115.027 81.9063,116.027 80.5,116.5C 77.1667,116.5 73.8333,116.5 70.5,116.5C 64.2645,98.847 58.7645,80.847 54,62.5C 53.2904,61.0267 52.1238,60.3601 50.5,60.5C 48.5877,70.494 45.921,80.1607 42.5,89.5C 40.2588,94.9005 38.5922,100.567 37.5,106.5C 37.1249,108.698 36.4582,110.698 35.5,112.5C 34.8333,113.833 34.1667,115.167 33.5,116.5C 29.8333,116.5 26.1667,116.5 22.5,116.5C 15.9967,94.2879 8.99671,72.2879 1.5,50.5C 1.5,49.1667 1.5,47.8333 1.5,46.5C 3.5273,46.3379 5.5273,46.5045 7.5,47C 8.0848,48.3024 8.75147,49.469 9.5,50.5C 10.7112,56.4681 12.7112,62.1348 15.5,67.5C 19.0208,81.7305 23.3541,95.7305 28.5,109.5C 29.7989,108.91 30.6322,107.91 31,106.5C 35.9944,89.5188 40.8278,72.5188 45.5,55.5C 47.2413,53.6051 48.2413,51.2718 48.5,48.5C 48.5,47.5 48.5,46.5 48.5,45.5 Z"/></g>
<g><path style="opacity:0.624" fill="#463f3f" d="M 48.5,48.5 C 48.2413,51.2718 47.2413,53.6051 45.5,55.5C 45.7587,52.7282 46.7587,50.3949 48.5,48.5 Z"/></g>
<g><path style="opacity:0.537" fill="#8d7e7e" d="M 476.5,52.5 C 475.167,52.5 473.833,52.5 472.5,52.5C 472.62,51.4138 473.287,50.7472 474.5,50.5C 475.713,50.7472 476.38,51.4138 476.5,52.5 Z"/></g>
<g><path style="opacity:0.027" fill="#928383" d="M 565.5,48.5 C 566.167,48.5 566.833,48.5 567.5,48.5C 570.338,54.269 572.671,60.269 574.5,66.5C 571.393,60.6529 568.393,54.6529 565.5,48.5 Z"/></g>
<g><path style="opacity:0.337" fill="#897b7b" d="M 222.5,45.5 C 233.626,50.6883 237.626,59.3549 234.5,71.5C 233.276,74.1705 231.609,76.5038 229.5,78.5C 232.168,79.5127 234.168,81.1794 235.5,83.5C 235.5,84.1667 235.5,84.8333 235.5,85.5C 232.645,82.8108 229.645,80.3108 226.5,78C 228.312,76.1884 230.145,74.3551 232,72.5C 236.606,61.1423 233.439,53.1423 222.5,48.5C 222.5,47.5 222.5,46.5 222.5,45.5 Z"/></g>
<g><path style="opacity:0.231" fill="#4e4545" d="M 399.5,46.5 C 404.558,48.2249 407.892,51.5582 409.5,56.5C 406.688,53.3435 403.354,51.0102 399.5,49.5C 399.5,48.5 399.5,47.5 399.5,46.5 Z"/></g>
<g><path style="opacity:0.212" fill="#887b7b" d="M 554.5,42.5 C 554.5,43.5 554.5,44.5 554.5,45.5C 552.593,51.5715 549.926,57.2382 546.5,62.5C 548.605,55.5005 551.271,48.8338 554.5,42.5 Z"/></g>
<g><path style="opacity:0.082" fill="#6a6160" d="M 789.5,53.5 C 789.5,54.1667 789.5,54.8333 789.5,55.5C 785.099,53.6623 780.099,52.329 774.5,51.5C 779.539,49.3067 784.539,49.9734 789.5,53.5 Z"/></g>
<g><path style="opacity:0.241" fill="#252222" d="M 164.5,51.5 C 164.5,52.5 164.5,53.5 164.5,54.5C 160.833,54.5 157.167,54.5 153.5,54.5C 152.5,51.8333 151.5,51.8333 150.5,54.5C 144.167,54.5 137.833,54.5 131.5,54.5C 133.658,52.78 136.325,51.9467 139.5,52C 147.827,51.5003 156.16,51.3336 164.5,51.5 Z"/></g>
<g><path style="opacity:0.251" fill="#3b3434" d="M 216.5,52.5 C 216.5,53.1667 216.5,53.8333 216.5,54.5C 209.5,54.5 202.5,54.5 195.5,54.5C 195.158,53.6618 194.492,53.3284 193.5,53.5C 193.611,52.8826 193.944,52.3826 194.5,52C 201.913,51.2036 209.246,51.3703 216.5,52.5 Z"/></g>
<g><path style="opacity:0.098" fill="#908282" d="M 153.5,54.5 C 152.5,54.5 151.5,54.5 150.5,54.5C 151.5,51.8333 152.5,51.8333 153.5,54.5 Z"/></g>
<g><path style="opacity:1" fill="#191717" d="M 517.5,49.5 C 517.5,50.5 517.5,51.5 517.5,52.5C 510.5,52.5 503.5,52.5 496.5,52.5C 496.167,52.5 495.833,52.5 495.5,52.5C 495.44,51.9569 495.107,51.6236 494.5,51.5C 493.5,72.1559 493.167,92.8226 493.5,113.5C 493.5,114.5 493.5,115.5 493.5,116.5C 491.5,116.5 489.5,116.5 487.5,116.5C 487.5,115.167 487.5,113.833 487.5,112.5C 489.167,112.5 490.833,112.5 492.5,112.5C 492.5,91.8333 492.5,71.1667 492.5,50.5C 500.875,50.7404 509.208,50.4071 517.5,49.5 Z"/></g>
<g><path style="opacity:0.788" fill="#3a3434" d="M 495.5,52.5 C 494.833,72.8333 494.167,93.1667 493.5,113.5C 493.167,92.8226 493.5,72.1559 494.5,51.5C 495.107,51.6236 495.44,51.9569 495.5,52.5 Z"/></g>
<g><path style="opacity:0.753" fill="#514949" d="M 622.5,52.5 C 623.209,51.596 624.209,51.2627 625.5,51.5C 625.5,72.1667 625.5,92.8333 625.5,113.5C 624.833,93.1667 624.167,72.8333 623.5,52.5C 623.167,52.5 622.833,52.5 622.5,52.5 Z"/></g>
<g><path style="opacity:0.251" fill="#7c7070" d="M 354.5,42.5 C 355.167,42.5 355.833,42.5 356.5,42.5C 348.322,49.9922 342.656,58.9922 339.5,69.5C 340.645,58.3559 345.645,49.3559 354.5,42.5 Z"/></g>
<g><path style="opacity:0.22" fill="#534a4a" d="M 462.5,51.5 C 463.993,52.3121 464.66,53.6455 464.5,55.5C 464.66,57.3545 463.993,58.6879 462.5,59.5C 462.5,56.8333 462.5,54.1667 462.5,51.5 Z"/></g>
<g><path style="opacity:0.075" fill="#625858" d="M 495.5,52.5 C 495.833,52.5 496.167,52.5 496.5,52.5C 496.667,73.5026 496.5,94.5026 496,115.5C 495.329,116.252 494.496,116.586 493.5,116.5C 493.5,115.5 493.5,114.5 493.5,113.5C 494.167,93.1667 494.833,72.8333 495.5,52.5 Z"/></g>
<g><path style="opacity:0.141" fill="#908181" d="M 55.5,45.5 C 56.9573,47.2418 58.124,49.2418 59,51.5C 61.2744,57.2876 62.7744,63.2876 63.5,69.5C 60.2615,61.7846 57.5949,53.7846 55.5,45.5 Z"/></g>
<g><path style="opacity:0.082" fill="#756969" d="M 103.5,45.5 C 104.586,45.62 105.253,46.2867 105.5,47.5C 103.813,52.892 102.146,58.2253 100.5,63.5C 99.1429,64.5903 98.1429,65.9236 97.5,67.5C 99.0337,60.3651 101.034,53.3651 103.5,46.5C 103.5,46.1667 103.5,45.8333 103.5,45.5 Z"/></g>
<g><path style="opacity:0.224" fill="#877979" d="M 487.5,51.5 C 487.5,71.8333 487.5,92.1667 487.5,112.5C 487.5,113.833 487.5,115.167 487.5,116.5C 486.883,116.389 486.383,116.056 486,115.5C 485.5,94.5026 485.333,73.5026 485.5,52.5C 485.842,51.6618 486.508,51.3284 487.5,51.5 Z"/></g>
<g><path style="opacity:0.282" fill="#877a7a" d="M 94.5,49.5 C 94.5,50.8333 94.5,52.1667 94.5,53.5C 93.5033,56.817 92.5033,60.1503 91.5,63.5C 90.609,64.1098 89.609,64.4431 88.5,64.5C 90.3183,59.2304 92.3183,54.2304 94.5,49.5 Z"/></g>
<g><path style="opacity:0.055" fill="#827575" d="M 216.5,52.5 C 219.902,53.0689 222.569,54.7356 224.5,57.5C 224.5,58.8333 224.5,60.1667 224.5,61.5C 223.123,57.7947 220.456,55.4613 216.5,54.5C 216.5,53.8333 216.5,53.1667 216.5,52.5 Z"/></g>
<g><path style="opacity:0.416" fill="#8d7f7f" d="M 367.5,54.5 C 367.167,55.8333 366.833,57.1667 366.5,58.5C 366.5,58.8333 366.5,59.1667 366.5,59.5C 365.833,59.8333 365.167,60.1667 364.5,60.5C 364.755,58.0326 365.755,56.0326 367.5,54.5 Z"/></g>
<g><path style="opacity:0.086" fill="#968686" d="M 409.5,56.5 C 411.223,57.6053 412.223,59.2719 412.5,61.5C 410.777,60.3947 409.777,58.7281 409.5,56.5 Z"/></g>
<g><path style="opacity:0.369" fill="#a19191" d="M 748.5,56.5 C 748.773,62.0956 750.273,67.429 753,72.5C 754.518,73.1634 755.685,74.1634 756.5,75.5C 756.5,76.1667 756.5,76.8333 756.5,77.5C 749.228,72.3185 746.562,65.3185 748.5,56.5 Z"/></g>
<g><path style="opacity:0.125" fill="#897b7b" d="M 462.5,59.5 C 462.446,61.632 461.446,62.9653 459.5,63.5C 459.554,61.368 460.554,60.0347 462.5,59.5 Z"/></g>
<g><path style="opacity:0.255" fill="#918282" d="M 9.5,48.5 C 10.1174,48.6107 10.6174,48.944 11,49.5C 12.8031,55.4347 14.3031,61.4347 15.5,67.5C 12.7112,62.1348 10.7112,56.4681 9.5,50.5C 9.5,49.8333 9.5,49.1667 9.5,48.5 Z"/></g>
<g><path style="opacity:0.776" fill="#453e3e" d="M 224.5,57.5 C 228.397,62.1962 228.397,66.8629 224.5,71.5C 224.473,68.7702 225.14,66.2702 226.5,64C 226.316,62.6244 225.649,61.7911 224.5,61.5C 224.5,60.1667 224.5,58.8333 224.5,57.5 Z"/></g>
<g><path style="opacity:1" fill="#161414" d="M 672.5,42.5 C 674.5,42.5 676.5,42.5 678.5,42.5C 678.5,43.5 678.5,44.5 678.5,45.5C 678.5,59.8333 678.5,74.1667 678.5,88.5C 677.504,74.3431 677.171,60.0097 677.5,45.5C 676.167,45.5 674.833,45.5 673.5,45.5C 673.5,61.1667 673.5,76.8333 673.5,92.5C 672.5,92.5 671.5,92.5 670.5,92.5C 670.5,90.5 670.5,88.5 670.5,86.5C 672.483,72.2048 673.15,57.5381 672.5,42.5 Z"/></g>
<g><path style="opacity:0.859" fill="#3c3636" d="M 678.5,45.5 C 678.839,59.6965 679.839,73.6965 681.5,87.5C 681.5,87.8333 681.5,88.1667 681.5,88.5C 680.833,88.5 680.167,88.5 679.5,88.5C 679.167,88.5 678.833,88.5 678.5,88.5C 678.5,74.1667 678.5,59.8333 678.5,45.5 Z"/></g>
<g><path style="opacity:0.388" fill="#5c5252" d="M 678.5,42.5 C 679.496,42.4142 680.329,42.7476 681,43.5C 681.5,58.1629 681.667,72.8295 681.5,87.5C 679.839,73.6965 678.839,59.6965 678.5,45.5C 678.5,44.5 678.5,43.5 678.5,42.5 Z"/></g>
<g><path style="opacity:0.068" fill="#b3a1a1" d="M 130.5,54.5 C 130.5,61.1667 130.5,67.8333 130.5,74.5C 129.833,74.8333 129.167,75.1667 128.5,75.5C 128.334,68.1591 128.5,60.8258 129,53.5C 129.383,54.056 129.883,54.3893 130.5,54.5 Z"/></g>
<g><path style="opacity:0.596" fill="#4b4343" d="M 91.5,63.5 C 91.1249,65.6976 90.4582,67.6976 89.5,69.5C 89.7678,67.901 89.4345,66.5676 88.5,65.5C 88.5,65.1667 88.5,64.8333 88.5,64.5C 89.609,64.4431 90.609,64.1098 91.5,63.5 Z"/></g>
<g><path style="opacity:0.255" fill="#7d7070" d="M 324.5,30.5 C 324.649,31.552 324.483,32.552 324,33.5C 321.174,36.4835 318.841,39.8168 317,43.5C 313.454,48.8652 312.787,54.5318 315,60.5C 318.867,63.1875 320.701,66.8541 320.5,71.5C 319.833,76.1667 319.167,80.8333 318.5,85.5C 318.212,79.7711 318.546,74.1045 319.5,68.5C 317.845,65.847 315.845,63.5136 313.5,61.5C 312.261,59.6885 311.594,57.6885 311.5,55.5C 313.388,45.7908 317.722,37.4575 324.5,30.5 Z"/></g>
<g><path style="opacity:0.999" fill="#0d0c0c" d="M 564.5,45.5 C 565.404,46.209 565.737,47.209 565.5,48.5C 568.393,54.6529 571.393,60.6529 574.5,66.5C 574.5,66.8333 574.5,67.1667 574.5,67.5C 580.313,82.2802 586.313,96.9469 592.5,111.5C 591.082,113.308 589.082,113.975 586.5,113.5C 583.356,106.064 580.023,98.7303 576.5,91.5C 565.167,90.1667 553.833,90.1667 542.5,91.5C 538.218,98.3208 534.885,105.654 532.5,113.5C 530.833,113.5 529.167,113.5 527.5,113.5C 527.5,112.167 527.5,110.833 527.5,109.5C 531.944,99.4401 535.944,89.1068 539.5,78.5C 542.977,73.7609 545.31,68.4276 546.5,62.5C 549.926,57.2382 552.593,51.5715 554.5,45.5C 557.833,44.1667 561.167,44.1667 564.5,45.5 Z M 562.5,58.5 C 562.927,61.3761 563.594,64.2094 564.5,67C 566.977,72.1196 569.311,77.2863 571.5,82.5C 563.5,82.5 555.5,82.5 547.5,82.5C 551.217,74.7253 554.717,66.0586 558,56.5C 558.667,55.8333 559.333,55.1667 560,54.5C 560.122,56.437 560.955,57.7703 562.5,58.5 Z"/></g>
<g><path style="opacity:0.031" fill="#918383" d="M 562.5,58.5 C 566.781,65.9839 570.114,73.9839 572.5,82.5C 572.167,82.5 571.833,82.5 571.5,82.5C 569.311,77.2863 566.977,72.1196 564.5,67C 563.594,64.2094 562.927,61.3761 562.5,58.5 Z"/></g>
<g><path style="opacity:0.043" fill="#908282" d="M 562.5,58.5 C 560.955,57.7703 560.122,56.437 560,54.5C 559.333,55.1667 558.667,55.8333 558,56.5C 554.717,66.0586 551.217,74.7253 547.5,82.5C 547.158,83.3382 546.492,83.6716 545.5,83.5C 549.699,73.5682 553.699,63.5682 557.5,53.5C 558.451,52.6744 559.451,52.5078 560.5,53C 561.861,54.5843 562.528,56.4176 562.5,58.5 Z"/></g>
<g><path style="opacity:0.29" fill="#463e3e" d="M 458.5,64.5 C 457.135,66.5909 456.468,68.9242 456.5,71.5C 455.414,71.38 454.747,70.7133 454.5,69.5C 455.046,67.8653 455.38,66.1986 455.5,64.5C 456.5,64.5 457.5,64.5 458.5,64.5 Z"/></g>
<g><path style="opacity:0.204" fill="#958686" d="M 546.5,62.5 C 545.31,68.4276 542.977,73.7609 539.5,78.5C 541.272,73.7708 542.939,68.9375 544.5,64C 544.836,62.9701 545.503,62.4701 546.5,62.5 Z"/></g>
<g><path style="opacity:0.067" fill="#928383" d="M 224.5,61.5 C 225.649,61.7911 226.316,62.6244 226.5,64C 225.14,66.2702 224.473,68.7702 224.5,71.5C 223.833,72.8333 222.833,73.8333 221.5,74.5C 221.5,73.8333 221.5,73.1667 221.5,72.5C 223.568,69.237 224.568,65.5704 224.5,61.5 Z"/></g>
<g><path style="opacity:0.647" fill="#756969" d="M 767.5,51.5 C 757.552,53.8605 755.385,59.1938 761,67.5C 763.695,68.6148 766.195,69.9482 768.5,71.5C 761.12,72.3076 757.12,68.8076 756.5,61C 756.727,54.7707 759.893,50.9373 766,49.5C 767.03,49.8361 767.53,50.5028 767.5,51.5 Z"/></g>
<g><path style="opacity:0.698" fill="#554c4c" d="M 394.5,63.5 C 395.496,63.4142 396.329,63.7476 397,64.5C 398.886,70.3598 402.72,72.0265 408.5,69.5C 408.5,70.1667 408.5,70.8333 408.5,71.5C 405.57,72.299 402.57,72.6323 399.5,72.5C 396.544,70.2118 394.877,67.2118 394.5,63.5 Z"/></g>
<g><path style="opacity:0.004" fill="#968686" d="M 412.5,65.5 C 411.762,67.9402 410.429,69.9402 408.5,71.5C 408.5,70.8333 408.5,70.1667 408.5,69.5C 409.402,67.6593 410.736,66.326 412.5,65.5 Z"/></g>
<g><path style="opacity:0.255" fill="#796c6c" d="M 121.5,45.5 C 121.5,46.1667 121.5,46.8333 121.5,47.5C 121.5,70.5 121.5,93.5 121.5,116.5C 121.5,117.5 121.5,118.5 121.5,119.5C 120.25,119.423 119.417,118.756 119,117.5C 118.5,93.5023 118.333,69.5023 118.5,45.5C 119.5,45.5 120.5,45.5 121.5,45.5 Z"/></g>
<g><path style="opacity:0.106" fill="#423b3b" d="M 381.5,66.5 C 387.042,69.5902 393.042,71.5902 399.5,72.5C 400.1,73.8999 401.1,74.8999 402.5,75.5C 402.5,75.8333 402.5,76.1667 402.5,76.5C 396.559,74.5762 390.559,72.7428 384.5,71C 382.654,69.9702 380.987,68.8036 379.5,67.5C 380.492,67.6716 381.158,67.3382 381.5,66.5 Z"/></g>
<g><path style="opacity:0.235" fill="#675d5d" d="M 672.5,42.5 C 673.15,57.5381 672.483,72.2048 670.5,86.5C 669.85,71.4619 670.517,56.7952 672.5,42.5 Z"/></g>
<g><path style="opacity:0.118" fill="#8b7d7d" d="M 48.5,45.5 C 48.5,46.5 48.5,47.5 48.5,48.5C 46.7587,50.3949 45.7587,52.7282 45.5,55.5C 40.8278,72.5188 35.9944,89.5188 31,106.5C 30.6322,107.91 29.7989,108.91 28.5,109.5C 23.3541,95.7305 19.0208,81.7305 15.5,67.5C 20.471,79.7083 24.6376,92.375 28,105.5C 34.512,86.8352 40.3454,67.8352 45.5,48.5C 46.1411,47.0065 47.1411,46.0065 48.5,45.5 Z"/></g>
<g><path style="opacity:0.999" fill="#0b0a0a" d="M 759.5,42.5 C 759.285,44.1788 759.952,45.1788 761.5,45.5C 767.13,44.7081 772.797,44.3748 778.5,44.5C 783.622,44.4318 788.289,45.7651 792.5,48.5C 792.25,50.674 791.25,52.3406 789.5,53.5C 784.539,49.9734 779.539,49.3067 774.5,51.5C 772.167,51.5 769.833,51.5 767.5,51.5C 767.53,50.5028 767.03,49.8361 766,49.5C 759.893,50.9373 756.727,54.7707 756.5,61C 757.12,68.8076 761.12,72.3076 768.5,71.5C 769.5,71.5 770.5,71.5 771.5,71.5C 771.577,72.7498 772.244,73.5831 773.5,74C 775.698,74.3729 777.865,74.8729 780,75.5C 780.765,75.4301 781.265,75.0967 781.5,74.5C 782.167,74.5 782.833,74.5 783.5,74.5C 783.711,76.4241 784.377,76.7574 785.5,75.5C 785.833,75.5 786.167,75.5 786.5,75.5C 786.488,78.142 787.821,79.4754 790.5,79.5C 792.156,81.4602 793.823,83.4602 795.5,85.5C 796.779,91.8256 796.779,98.1589 795.5,104.5C 793.167,106.167 791.167,108.167 789.5,110.5C 786.281,111.069 783.948,112.736 782.5,115.5C 781.833,115.833 781.167,116.167 780.5,116.5C 780.179,114.952 779.179,114.285 777.5,114.5C 773.5,114.5 769.5,114.5 765.5,114.5C 762.918,114.025 760.918,114.692 759.5,116.5C 758.5,116.5 757.5,116.5 756.5,116.5C 756.471,113.344 754.804,111.678 751.5,111.5C 750.893,111.624 750.56,111.957 750.5,112.5C 750.167,112.5 749.833,112.5 749.5,112.5C 748.167,109.833 748.167,107.167 749.5,104.5C 750.632,103.646 751.965,103.646 753.5,104.5C 753.833,104.5 754.167,104.5 754.5,104.5C 755.486,106.408 757.152,107.408 759.5,107.5C 759.918,108.222 760.584,108.722 761.5,109C 766.352,109.815 771.019,109.648 775.5,108.5C 779.214,108.41 782.548,107.41 785.5,105.5C 786.5,104.167 787.5,102.833 788.5,101.5C 789.997,99.7103 790.664,97.5437 790.5,95C 790.592,92.1789 789.926,89.6789 788.5,87.5C 787.272,86.6935 786.272,85.6935 785.5,84.5C 781.081,81.4712 776.081,79.8046 770.5,79.5C 765.839,78.4981 761.172,77.1648 756.5,75.5C 755.685,74.1634 754.518,73.1634 753,72.5C 750.273,67.429 748.773,62.0956 748.5,56.5C 748.5,56.1667 748.5,55.8333 748.5,55.5C 749.496,55.5858 750.329,55.2524 751,54.5C 753.035,50.657 755.535,47.3237 758.5,44.5C 758.328,43.5084 758.662,42.8417 759.5,42.5 Z"/></g>
<g><path style="opacity:0.735" fill="#564d4d" d="M 771.5,71.5 C 775.332,71.5869 778.665,72.5869 781.5,74.5C 781.265,75.0967 780.765,75.4301 780,75.5C 777.865,74.8729 775.698,74.3729 773.5,74C 772.244,73.5831 771.577,72.7498 771.5,71.5 Z"/></g>
<g><path style="opacity:0.071" fill="#9e8e8e" d="M 100.5,63.5 C 98.5299,72.0864 95.8633,80.4197 92.5,88.5C 92.0139,86.0483 92.0139,83.3817 92.5,80.5C 94.929,76.4427 96.5957,72.1093 97.5,67.5C 98.1429,65.9236 99.1429,64.5903 100.5,63.5 Z"/></g>
<g><path style="opacity:0.321" fill="#635a5a" d="M 130.5,74.5 C 141.167,74.5 151.833,74.5 162.5,74.5C 162.5,75.5 162.5,76.5 162.5,77.5C 150.784,78.1444 139.451,77.4777 128.5,75.5C 129.167,75.1667 129.833,74.8333 130.5,74.5 Z"/></g>
<g><path style="opacity:0.271" fill="#625858" d="M 193.5,53.5 C 194.492,53.3284 195.158,53.6618 195.5,54.5C 195.5,61.1667 195.5,67.8333 195.5,74.5C 203.174,74.6664 210.841,74.4997 218.5,74C 219.527,73.4867 220.527,72.9867 221.5,72.5C 221.5,73.1667 221.5,73.8333 221.5,74.5C 220.711,74.7828 220.044,75.2828 219.5,76C 210.84,76.4998 202.173,76.6664 193.5,76.5C 193.5,68.8333 193.5,61.1667 193.5,53.5 Z"/></g>
<g><path style="opacity:0.431" fill="#6a5f5f" d="M 783.5,74.5 C 784.492,74.3284 785.158,74.6618 785.5,75.5C 784.377,76.7574 783.711,76.4241 783.5,74.5 Z"/></g>
<g><path style="opacity:0.075" fill="#685d5d" d="M 756.5,75.5 C 761.172,77.1648 765.839,78.4981 770.5,79.5C 768.517,79.1568 767.183,79.8235 766.5,81.5C 763.176,80.1726 759.843,78.8393 756.5,77.5C 756.5,76.8333 756.5,76.1667 756.5,75.5 Z"/></g>
<g><path style="opacity:0.627" fill="#544b4b" d="M 339.5,74.5 C 339.5,77.8333 339.5,81.1667 339.5,84.5C 338.223,83.3064 337.556,81.6397 337.5,79.5C 337.556,77.3603 338.223,75.6936 339.5,74.5 Z"/></g>
<g><path style="opacity:0.996" fill="#060505" d="M 392.5,35.5 C 393.458,35.9528 394.292,36.6195 395,37.5C 395.498,40.8168 395.665,44.1501 395.5,47.5C 396.791,47.7373 397.791,47.404 398.5,46.5C 398.833,46.5 399.167,46.5 399.5,46.5C 399.5,47.5 399.5,48.5 399.5,49.5C 403.354,51.0102 406.688,53.3435 409.5,56.5C 409.777,58.7281 410.777,60.3947 412.5,61.5C 412.5,62.8333 412.5,64.1667 412.5,65.5C 410.736,66.326 409.402,67.6593 408.5,69.5C 402.72,72.0265 398.886,70.3598 397,64.5C 396.329,63.7476 395.496,63.4142 394.5,63.5C 393.5,63.5 392.5,63.5 391.5,63.5C 391.586,62.5041 391.252,61.6708 390.5,61C 384.414,59.3936 380.747,61.5603 379.5,67.5C 380.987,68.8036 382.654,69.9702 384.5,71C 390.559,72.7428 396.559,74.5762 402.5,76.5C 405.22,79.2171 407.553,82.2171 409.5,85.5C 409.284,88.4317 409.951,91.0983 411.5,93.5C 411.315,94.5837 410.982,95.5837 410.5,96.5C 409.424,99.8705 408.424,103.204 407.5,106.5C 406.833,106.833 406.167,107.167 405.5,107.5C 401.808,107.324 399.808,108.991 399.5,112.5C 398.833,112.5 398.167,112.5 397.5,112.5C 395.78,114.658 394.947,117.325 395,120.5C 393.152,122.631 391.319,124.631 389.5,126.5C 388.5,126.5 387.5,126.5 386.5,126.5C 384.882,125.549 383.549,124.216 382.5,122.5C 381.511,118.893 381.177,115.226 381.5,111.5C 377.864,110.01 374.198,108.677 370.5,107.5C 369.167,107.5 368.5,106.833 368.5,105.5C 367.186,101.989 366.186,98.3225 365.5,94.5C 366.022,90.3075 368.355,88.3075 372.5,88.5C 374.841,88.3631 376.841,89.0298 378.5,90.5C 379.022,93.8562 380.855,96.1896 384,97.5C 385.03,97.1639 385.53,96.4972 385.5,95.5C 386.5,95.5 387.5,95.5 388.5,95.5C 390.401,97.8741 392.735,98.0407 395.5,96C 397.043,93.9551 396.71,92.4551 394.5,91.5C 394.062,90.4937 393.396,90.4937 392.5,91.5C 392.039,88.1096 390.373,87.1096 387.5,88.5C 387.167,88.5 386.833,88.5 386.5,88.5C 386.719,87.325 386.386,86.325 385.5,85.5C 370.612,82.96 364.278,74.2934 366.5,59.5C 366.5,59.1667 366.5,58.8333 366.5,58.5C 369.609,52.5698 374.442,48.5698 381,46.5C 381.498,43.5184 381.665,40.5184 381.5,37.5C 381.833,36.5 382.5,35.8333 383.5,35.5C 386.5,34.1667 389.5,34.1667 392.5,35.5 Z"/></g>
<g><path style="opacity:0.569" fill="#605656" d="M 391.5,63.5 C 387.365,61.9616 383.699,62.795 380.5,66C 380.728,66.3988 381.062,66.5654 381.5,66.5C 381.158,67.3382 380.492,67.6716 379.5,67.5C 380.747,61.5603 384.414,59.3936 390.5,61C 391.252,61.6708 391.586,62.5041 391.5,63.5 Z"/></g>
<g><path style="opacity:0.478" fill="#4b4444" d="M 786.5,75.5 C 787.609,75.5569 788.609,75.8902 789.5,76.5C 789.557,77.609 789.89,78.609 790.5,79.5C 787.821,79.4754 786.488,78.142 786.5,75.5 Z"/></g>
<g><path style="opacity:0.778" fill="#3a3434" d="M 320.5,71.5 C 320.5,77.1667 320.5,82.8333 320.5,88.5C 319.833,88.5 319.167,88.5 318.5,88.5C 318.5,87.5 318.5,86.5 318.5,85.5C 319.167,80.8333 319.833,76.1667 320.5,71.5 Z"/></g>
<g><path style="opacity:0.08" fill="#ac9b9b" d="M 456.5,76.5 C 458.994,78.594 458.994,80.594 456.5,82.5C 456.5,80.5 456.5,78.5 456.5,76.5 Z"/></g>
<g><path style="opacity:0.033" fill="#7d7070" d="M 402.5,75.5 C 407.785,78.7238 411.118,83.3905 412.5,89.5C 411.022,88.5525 410.022,87.2191 409.5,85.5C 407.553,82.2171 405.22,79.2171 402.5,76.5C 402.5,76.1667 402.5,75.8333 402.5,75.5 Z"/></g>
<g><path style="opacity:0.031" fill="#ac9b9b" d="M 770.5,79.5 C 770.5,80.1667 770.5,80.8333 770.5,81.5C 769.167,81.5 767.833,81.5 766.5,81.5C 767.183,79.8235 768.517,79.1568 770.5,79.5 Z"/></g>
<g><path style="opacity:0.078" fill="#918282" d="M 789.5,76.5 C 793.558,79.2321 796.558,82.8988 798.5,87.5C 797.222,87.2178 796.222,86.5511 795.5,85.5C 793.823,83.4602 792.156,81.4602 790.5,79.5C 789.89,78.609 789.557,77.609 789.5,76.5 Z"/></g>
<g><path style="opacity:0.443" fill="#5e5454" d="M 770.5,79.5 C 776.081,79.8046 781.081,81.4712 785.5,84.5C 784.508,84.3284 783.842,84.6618 783.5,85.5C 779.221,83.6852 774.888,82.3518 770.5,81.5C 770.5,80.8333 770.5,80.1667 770.5,79.5 Z"/></g>
<g><path style="opacity:0.314" fill="#2f2a2a" d="M 219.5,82.5 C 219.5,83.1667 219.5,83.8333 219.5,84.5C 211.808,84.5558 203.808,84.5558 195.5,84.5C 195.158,83.6618 194.492,83.3284 193.5,83.5C 193.918,82.7784 194.584,82.2784 195.5,82C 203.579,81.2004 211.579,81.3671 219.5,82.5 Z"/></g>
<g><path style="opacity:0.395" fill="#574f4f" d="M 547.5,82.5 C 555.5,82.5 563.5,82.5 571.5,82.5C 571.833,82.5 572.167,82.5 572.5,82.5C 568.386,83.8261 563.886,84.4927 559,84.5C 554.32,84.4991 549.82,84.1658 545.5,83.5C 546.492,83.6716 547.158,83.3382 547.5,82.5 Z"/></g>
<g><path style="opacity:0.957" fill="#161414" d="M 604.5,45.5 C 604.5,46.8333 604.5,48.1667 604.5,49.5C 611.558,49.203 618.558,49.5363 625.5,50.5C 626.5,71.4894 626.833,92.4894 626.5,113.5C 627.833,113.5 629.167,113.5 630.5,113.5C 630.167,92.4894 630.5,71.4894 631.5,50.5C 638.442,49.5363 645.442,49.203 652.5,49.5C 652.5,50.5 652.5,51.5 652.5,52.5C 646.167,52.5 639.833,52.5 633.5,52.5C 633.44,51.9569 633.107,51.6236 632.5,51.5C 631.5,73.1564 631.167,94.8231 631.5,116.5C 629.5,116.5 627.5,116.5 625.5,116.5C 625.5,115.5 625.5,114.5 625.5,113.5C 625.5,92.8333 625.5,72.1667 625.5,51.5C 624.209,51.2627 623.209,51.596 622.5,52.5C 616.167,52.5 609.833,52.5 603.5,52.5C 603.198,49.9407 603.532,47.6074 604.5,45.5 Z"/></g>
<g><path style="opacity:0.439" fill="#887a7a" d="M -0.5,45.5 C -0.166667,45.5 0.166667,45.5 0.5,45.5C 0.215521,47.4147 0.548855,49.0813 1.5,50.5C 8.99671,72.2879 15.9967,94.2879 22.5,116.5C 22.5,117.167 22.5,117.833 22.5,118.5C 21.1983,116.328 20.0317,113.994 19,111.5C 17.1969,105.565 15.6969,99.5653 14.5,93.5C 14.5,92.1667 13.8333,91.5 12.5,91.5C 9.82722,81.8132 6.99389,72.1465 4,62.5C 2.93699,59.1176 1.43699,56.1176 -0.5,53.5C -0.5,50.8333 -0.5,48.1667 -0.5,45.5 Z"/></g>
<g><path style="opacity:0.027" fill="#b09e9e" d="M 162.5,83.5 C 152.219,85.4762 141.552,86.1428 130.5,85.5C 130.5,93.5 130.5,101.5 130.5,109.5C 142.5,109.5 154.5,109.5 166.5,109.5C 166.5,109.833 166.5,110.167 166.5,110.5C 153.833,110.5 141.167,110.5 128.5,110.5C 128.5,101.5 128.5,92.5 128.5,83.5C 139.833,83.5 151.167,83.5 162.5,83.5 Z"/></g>
<g><path style="opacity:0.055" fill="#867979" d="M 219.5,82.5 C 220.552,82.3505 221.552,82.5172 222.5,83C 224.319,83.7403 225.652,84.9069 226.5,86.5C 224.035,86.233 221.701,85.5664 219.5,84.5C 219.5,83.8333 219.5,83.1667 219.5,82.5 Z"/></g>
<g><path style="opacity:0.318" fill="#494141" d="M 366.5,59.5 C 364.278,74.2934 370.612,82.96 385.5,85.5C 386.386,86.325 386.719,87.325 386.5,88.5C 370.58,85.9134 363.247,76.5801 364.5,60.5C 365.167,60.1667 365.833,59.8333 366.5,59.5 Z"/></g>
<g><path style="opacity:0.067" fill="#8d7f7f" d="M 70.5,116.5 C 70.5,117.5 70.5,118.5 70.5,119.5C 69.0688,118.097 67.9022,116.431 67,114.5C 62.246,98.0374 57.246,81.704 52,65.5C 48.5385,75.0095 45.5385,84.6761 43,94.5C 42.6174,95.056 42.1174,95.3893 41.5,95.5C 42.1495,93.5648 42.4828,91.5648 42.5,89.5C 45.921,80.1607 48.5877,70.494 50.5,60.5C 52.1238,60.3601 53.2904,61.0267 54,62.5C 58.7645,80.847 64.2645,98.847 70.5,116.5 Z"/></g>
<g><path style="opacity:0.107" fill="#9d8d8d" d="M 235.5,83.5 C 238.46,85.6519 240.127,88.6519 240.5,92.5C 239.1,91.9002 238.1,90.9002 237.5,89.5C 237.267,87.9382 236.6,86.6049 235.5,85.5C 235.5,84.8333 235.5,84.1667 235.5,83.5 Z"/></g>
<g><path style="opacity:0.11" fill="#675c5c" d="M 423.5,45.5 C 425.017,45.5106 426.184,46.1772 427,47.5C 429.386,52.2264 432.22,56.5597 435.5,60.5C 436.339,66.7 437.339,72.8667 438.5,79C 438.055,84.2261 437.222,89.3928 436,94.5C 435.617,95.056 435.117,95.3893 434.5,95.5C 439.148,77.057 435.481,60.3904 423.5,45.5 Z"/></g>
<g><path style="opacity:0.52" fill="#776b6b" d="M 193.5,83.5 C 194.492,83.3284 195.158,83.6618 195.5,84.5C 195.5,92.8333 195.5,101.167 195.5,109.5C 195.44,110.043 195.107,110.376 194.5,110.5C 193.502,101.525 193.168,92.5246 193.5,83.5 Z"/></g>
<g><path style="opacity:0.063" fill="#bda9a9" d="M 783.5,85.5 C 783.842,84.6618 784.508,84.3284 785.5,84.5C 786.272,85.6935 787.272,86.6935 788.5,87.5C 788.5,89.1667 788.5,90.8333 788.5,92.5C 787.583,89.6791 785.916,87.3457 783.5,85.5 Z"/></g>
<g><path style="opacity:0.059" fill="#887b7b" d="M 226.5,86.5 C 227.496,86.4142 228.329,86.7476 229,87.5C 229.785,89.249 230.618,90.9157 231.5,92.5C 231.5,93.8333 230.833,94.5 229.5,94.5C 228.344,91.9212 227.344,89.2545 226.5,86.5 Z"/></g>
<g><path style="opacity:0.145" fill="#5d5454" d="M 387.5,88.5 C 390.373,87.1096 392.039,88.1096 392.5,91.5C 391.151,90.0475 389.485,89.0475 387.5,88.5 Z"/></g>
<g><path style="opacity:0.031" fill="#5d5454" d="M 92.5,80.5 C 92.0139,83.3817 92.0139,86.0483 92.5,88.5C 92.6716,89.4916 92.3382,90.1583 91.5,90.5C 90.8333,90.8333 90.1667,91.1667 89.5,91.5C 90.134,87.6273 91.134,83.9606 92.5,80.5 Z"/></g>
<g><path style="opacity:0.141" fill="#807272" d="M 378.5,88.5 C 380.117,90.1209 381.284,92.1209 382,94.5C 383.011,95.3366 384.178,95.67 385.5,95.5C 385.53,96.4972 385.03,97.1639 384,97.5C 380.855,96.1896 379.022,93.8562 378.5,90.5C 378.5,89.8333 378.5,89.1667 378.5,88.5 Z"/></g>
<g><path style="opacity:0.157" fill="#322c2c" d="M 409.5,85.5 C 410.022,87.2191 411.022,88.5525 412.5,89.5C 412.5,91.8333 412.5,94.1667 412.5,96.5C 411.833,96.5 411.167,96.5 410.5,96.5C 410.982,95.5837 411.315,94.5837 411.5,93.5C 409.951,91.0983 409.284,88.4317 409.5,85.5 Z"/></g>
<g><path style="opacity:0.035" fill="#b7a5a5" d="M 576.5,91.5 C 576.5,91.8333 576.5,92.1667 576.5,92.5C 564.913,91.8893 553.58,92.556 542.5,94.5C 542.5,93.5 542.5,92.5 542.5,91.5C 553.833,90.1667 565.167,90.1667 576.5,91.5 Z"/></g>
<g><path style="opacity:0.703" fill="#6c6262" d="M 633.5,52.5 C 633.667,73.5026 633.5,94.5026 633,115.5C 632.617,116.056 632.117,116.389 631.5,116.5C 631.167,94.8231 631.5,73.1564 632.5,51.5C 633.107,51.6236 633.44,51.9569 633.5,52.5 Z"/></g>
<g><path style="opacity:0.082" fill="#b5a3a3" d="M 12.5,91.5 C 13.8333,91.5 14.5,92.1667 14.5,93.5C 13.1667,93.5 12.5,92.8333 12.5,91.5 Z"/></g>
<g><path style="opacity:0.369" fill="#a59494" d="M 186.5,45.5 C 186.5,46.1667 186.5,46.8333 186.5,47.5C 186.5,70.5 186.5,93.5 186.5,116.5C 186.5,117.5 186.5,118.5 186.5,119.5C 185.883,119.389 185.383,119.056 185,118.5C 184.833,106.333 184.667,94.1667 184.5,82C 184.501,69.4812 185.168,57.3145 186.5,45.5 Z"/></g>
<g><path style="opacity:0.795" fill="#494242" d="M 795.5,85.5 C 796.222,86.5511 797.222,87.2178 798.5,87.5C 798.5,88.1667 798.5,88.8333 798.5,89.5C 797.992,94.5997 796.992,99.5997 795.5,104.5C 796.779,98.1589 796.779,91.8256 795.5,85.5 Z"/></g>
<g><path style="opacity:0.376" fill="#8c7e7e" d="M 539.5,78.5 C 535.944,89.1068 531.944,99.4401 527.5,109.5C 526.607,111.297 525.274,112.63 523.5,113.5C 527.508,104.818 531.175,95.9846 534.5,87C 536.094,83.9158 537.76,81.0824 539.5,78.5 Z"/></g>
<g><path style="opacity:0.035" fill="#beabab" d="M 91.5,90.5 C 91.9227,92.7812 91.256,94.4479 89.5,95.5C 89.5,94.5 89.5,93.5 89.5,92.5C 89.5,92.1667 89.5,91.8333 89.5,91.5C 90.1667,91.1667 90.8333,90.8333 91.5,90.5 Z"/></g>
<g><path style="opacity:0.4" fill="#453e3e" d="M 378.5,88.5 C 378.5,89.1667 378.5,89.8333 378.5,90.5C 376.841,89.0298 374.841,88.3631 372.5,88.5C 368.355,88.3075 366.022,90.3075 365.5,94.5C 366.186,98.3225 367.186,101.989 368.5,105.5C 364.493,100.886 363.493,95.5523 365.5,89.5C 369.656,85.9955 373.99,85.6622 378.5,88.5 Z"/></g>
<g><path style="opacity:0.086" fill="#978787" d="M 542.5,91.5 C 542.5,92.5 542.5,93.5 542.5,94.5C 540.634,100.26 538.468,105.927 536,111.5C 535.098,113.431 533.931,115.097 532.5,116.5C 532.5,115.5 532.5,114.5 532.5,113.5C 534.885,105.654 538.218,98.3208 542.5,91.5 Z"/></g>
<g><path style="opacity:0.465" fill="#5f5656" d="M 42.5,89.5 C 42.4828,91.5648 42.1495,93.5648 41.5,95.5C 41.634,97.2915 41.3007,98.9582 40.5,100.5C 39.5,102.5 38.5,104.5 37.5,106.5C 38.5922,100.567 40.2588,94.9005 42.5,89.5 Z"/></g>
<g><path style="opacity:0.224" fill="#736868" d="M 89.5,92.5 C 89.5,93.5 89.5,94.5 89.5,95.5C 89.634,97.2915 89.3007,98.9582 88.5,100.5C 87.8333,100.833 87.1667,101.167 86.5,101.5C 86.5275,98.0836 87.5275,95.0836 89.5,92.5 Z"/></g>
<g><path style="opacity:0.667" fill="#443d3d" d="M 237.5,89.5 C 238.1,90.9002 239.1,91.9002 240.5,92.5C 240.81,95.7131 240.477,98.7131 239.5,101.5C 239.167,101.5 238.833,101.5 238.5,101.5C 238.495,97.4659 238.162,93.4659 237.5,89.5 Z"/></g>
<g><path style="opacity:0.38" fill="#5e5454" d="M 394.5,91.5 C 396.71,92.4551 397.043,93.9551 395.5,96C 392.735,98.0407 390.401,97.8741 388.5,95.5C 392.241,96.4015 394.241,95.0681 394.5,91.5 Z"/></g>
<g><path style="opacity:0.416" fill="#645959" d="M 456.5,89.5 C 458.5,93.1667 460.5,96.8333 462.5,100.5C 459.895,98.663 457.728,96.3297 456,93.5C 455.235,91.9343 455.402,90.6009 456.5,89.5 Z"/></g>
<g><path style="opacity:0.004" fill="#8e7f7f" d="M 623.5,52.5 C 624.167,72.8333 624.833,93.1667 625.5,113.5C 625.5,114.5 625.5,115.5 625.5,116.5C 624.141,115.993 623.141,114.993 622.5,113.5C 622.167,103.5 621.833,93.5 621.5,83.5C 621.524,72.9397 622.191,62.6063 623.5,52.5 Z"/></g>
<g><path style="opacity:0.016" fill="#ac9b9b" d="M 730.5,94.5 C 730.5,95.8333 729.833,96.5 728.5,96.5C 728.5,95.1667 729.167,94.5 730.5,94.5 Z"/></g>
<g><path style="opacity:0.255" fill="#373232" d="M 231.5,92.5 C 232.71,95.9298 232.376,99.2631 230.5,102.5C 230.737,101.209 230.404,100.209 229.5,99.5C 229.5,97.8333 229.5,96.1667 229.5,94.5C 230.833,94.5 231.5,93.8333 231.5,92.5 Z"/></g>
<g><path style="opacity:0.29" fill="#887a7a" d="M 318.5,88.5 C 319.167,88.5 319.833,88.5 320.5,88.5C 320.433,93.5468 318.1,96.8802 313.5,98.5C 315.361,95.9784 317.361,93.4784 319.5,91C 318.748,90.3292 318.414,89.4959 318.5,88.5 Z"/></g>
<g><path style="opacity:0.247" fill="#847676" d="M 722.5,45.5 C 722.667,61.1702 722.5,76.8369 722,92.5C 720.576,99.3471 716.743,104.347 710.5,107.5C 709.702,107.043 709.369,106.376 709.5,105.5C 712.667,104.832 715.167,103.166 717,100.5C 718.481,96.5535 719.647,92.5535 720.5,88.5C 721.167,74.1667 721.833,59.8333 722.5,45.5 Z"/></g>
<g><path style="opacity:0.671" fill="#6f6464" d="M 788.5,87.5 C 789.926,89.6789 790.592,92.1789 790.5,95C 790.664,97.5437 789.997,99.7103 788.5,101.5C 788.672,100.508 788.338,99.8417 787.5,99.5C 788.219,97.2362 788.552,94.9029 788.5,92.5C 788.5,90.8333 788.5,89.1667 788.5,87.5 Z"/></g>
<g><path style="opacity:0.225" fill="#807373" d="M 88.5,65.5 C 89.4345,66.5676 89.7678,67.901 89.5,69.5C 85.499,82.8556 81.499,96.189 77.5,109.5C 76.5,109.5 75.5,109.5 74.5,109.5C 71.6465,99.4253 68.4798,89.4253 65,79.5C 64.1744,76.2072 63.6744,72.8738 63.5,69.5C 64.6491,69.7911 65.3158,70.6244 65.5,72C 68.8026,83.5734 72.3026,95.0734 76,106.5C 80.0232,92.7284 84.1898,79.0618 88.5,65.5 Z"/></g>
<g><path style="opacity:0.231" fill="#756868" d="M 434.5,96.5 C 434.241,99.2718 433.241,101.605 431.5,103.5C 431.759,100.728 432.759,98.3949 434.5,96.5 Z"/></g>
<g><path style="opacity:0.357" fill="#776a6a" d="M 339.5,89.5 C 341.391,96.4766 344.391,103.143 348.5,109.5C 347.167,108.167 345.833,106.833 344.5,105.5C 341.645,100.598 339.978,95.2645 339.5,89.5 Z"/></g>
<g><path style="opacity:0.029" fill="#746868" d="M 410.5,96.5 C 411.167,96.5 411.833,96.5 412.5,96.5C 411.87,100.426 410.204,103.759 407.5,106.5C 408.424,103.204 409.424,99.8705 410.5,96.5 Z"/></g>
<g><path style="opacity:0.353" fill="#8d7f7f" d="M 574.5,67.5 C 575.497,67.4701 576.164,67.9701 576.5,69C 583.17,84.0104 589.504,99.1771 595.5,114.5C 595.145,115.522 594.478,116.189 593.5,116.5C 593.784,114.585 593.451,112.919 592.5,111.5C 586.313,96.9469 580.313,82.2802 574.5,67.5 Z"/></g>
<g><path style="opacity:0.043" fill="#756969" d="M 679.5,88.5 C 680.167,88.5 680.833,88.5 681.5,88.5C 681.598,96.6982 685.265,102.698 692.5,106.5C 692.44,107.043 692.107,107.376 691.5,107.5C 683.837,103.545 679.837,97.2117 679.5,88.5 Z"/></g>
<g><path style="opacity:0.718" fill="#574e4e" d="M 313.5,99.5 C 313.253,102.939 313.586,106.272 314.5,109.5C 314.167,109.5 313.833,109.5 313.5,109.5C 312.266,107.799 311.599,105.799 311.5,103.5C 311.34,101.645 312.007,100.312 313.5,99.5 Z"/></g>
<g><path style="opacity:0.118" fill="#9e8e8e" d="M 670.5,92.5 C 671.5,92.5 672.5,92.5 673.5,92.5C 673.544,99.5038 676.21,105.171 681.5,109.5C 681.5,109.833 681.5,110.167 681.5,110.5C 675.317,106.15 671.65,100.15 670.5,92.5 Z"/></g>
<g><path style="opacity:0.067" fill="#ad9b9b" d="M 787.5,99.5 C 788.338,99.8417 788.672,100.508 788.5,101.5C 787.5,102.833 786.5,104.167 785.5,105.5C 784.833,105.5 784.167,105.5 783.5,105.5C 784.859,103.482 786.193,101.482 787.5,99.5 Z"/></g>
<g><path style="opacity:0.035" fill="#978787" d="M 229.5,99.5 C 230.404,100.209 230.737,101.209 230.5,102.5C 229.221,104.123 227.887,105.79 226.5,107.5C 225.893,107.376 225.56,107.043 225.5,106.5C 226.836,104.163 228.17,101.829 229.5,99.5 Z"/></g>
<g><path style="opacity:0.129" fill="#7d6f6f" d="M 431.5,103.5 C 431.573,105.027 430.906,106.027 429.5,106.5C 429.285,104.821 429.952,103.821 431.5,103.5 Z"/></g>
<g><path style="opacity:0.349" fill="#a39292" d="M 753.5,104.5 C 751.965,103.646 750.632,103.646 749.5,104.5C 748.833,104.5 748.167,104.5 747.5,104.5C 748.134,103.053 749.301,102.387 751,102.5C 752.376,102.684 753.209,103.351 753.5,104.5 Z"/></g>
<g><path style="opacity:0.239" fill="#b3a0a0" d="M 88.5,100.5 C 88.3803,103.578 87.3803,106.245 85.5,108.5C 85.5172,106.435 85.8505,104.435 86.5,102.5C 86.5,102.167 86.5,101.833 86.5,101.5C 87.1667,101.167 87.8333,100.833 88.5,100.5 Z"/></g>
<g><path style="opacity:0.467" fill="#796c6c" d="M 760.5,106.5 C 760.5,107.167 760.167,107.5 759.5,107.5C 757.152,107.408 755.486,106.408 754.5,104.5C 754.56,103.957 754.893,103.624 755.5,103.5C 756.696,103.846 756.696,104.346 755.5,105C 757.382,105.198 759.048,105.698 760.5,106.5 Z"/></g>
<g><path style="opacity:0.004" fill="#c0acac" d="M 764.5,106.5 C 768.167,106.5 771.833,106.5 775.5,106.5C 775.5,107.167 775.5,107.833 775.5,108.5C 771.351,109.08 767.684,108.414 764.5,106.5 Z"/></g>
<g><path style="opacity:0.039" fill="#9c8d8d" d="M 224.5,106.5 C 224.5,107.167 224.5,107.833 224.5,108.5C 223.833,108.5 223.167,108.5 222.5,108.5C 222.5,107.167 223.167,106.5 224.5,106.5 Z"/></g>
<g><path style="opacity:0.58" fill="#5e5454" d="M 783.5,105.5 C 784.167,105.5 784.833,105.5 785.5,105.5C 782.548,107.41 779.214,108.41 775.5,108.5C 775.5,107.833 775.5,107.167 775.5,106.5C 778.206,106.425 780.873,106.092 783.5,105.5 Z"/></g>
<g><path style="opacity:0.004" fill="#a69595" d="M 40.5,100.5 C 39.4097,106.225 38.0764,111.892 36.5,117.5C 35.5489,116.081 35.2155,114.415 35.5,112.5C 36.4582,110.698 37.1249,108.698 37.5,106.5C 38.5,104.5 39.5,102.5 40.5,100.5 Z"/></g>
<g><path style="opacity:0.671" fill="#595050" d="M 86.5,102.5 C 85.8505,104.435 85.5172,106.435 85.5,108.5C 84.9348,110.42 83.9348,112.087 82.5,113.5C 83.3288,110.185 84.1621,106.852 85,103.5C 85.3826,102.944 85.8826,102.611 86.5,102.5 Z"/></g>
<g><path style="opacity:0.135" fill="#4c4343" d="M 405.5,107.5 C 404.155,109.836 402.155,111.503 399.5,112.5C 399.808,108.991 401.808,107.324 405.5,107.5 Z"/></g>
<g><path style="opacity:0.533" fill="#837575" d="M 694.5,106.5 C 696.594,107.242 698.761,107.909 701,108.5C 702.989,108.079 704.823,107.412 706.5,106.5C 706.586,107.496 706.252,108.329 705.5,109C 702.167,109.667 698.833,109.667 695.5,109C 694.748,108.329 694.414,107.496 694.5,106.5 Z"/></g>
<g><path style="opacity:0.584" fill="#4e4646" d="M 760.5,106.5 C 761.833,106.5 763.167,106.5 764.5,106.5C 767.684,108.414 771.351,109.08 775.5,108.5C 771.019,109.648 766.352,109.815 761.5,109C 760.584,108.722 759.918,108.222 759.5,107.5C 760.167,107.5 760.5,107.167 760.5,106.5 Z"/></g>
<g><path style="opacity:0.173" fill="#b8a4a4" d="M 219.5,108.5 C 219.167,109.167 218.833,109.833 218.5,110.5C 210.981,110.825 203.648,110.492 196.5,109.5C 204.222,109.767 211.889,109.434 219.5,108.5 Z"/></g>
<g><path style="opacity:0.902" fill="#3d3737" d="M 219.5,108.5 C 220.5,108.5 221.5,108.5 222.5,108.5C 223.167,108.5 223.833,108.5 224.5,108.5C 222.898,110.074 220.898,110.741 218.5,110.5C 218.833,109.833 219.167,109.167 219.5,108.5 Z"/></g>
<g><path style="opacity:0.376" fill="#655a5a" d="M 462.5,100.5 C 463.725,101.152 464.392,102.319 464.5,104C 463.056,110.544 460.39,116.377 456.5,121.5C 457.508,117.308 459.008,113.308 461,109.5C 461.953,106.568 462.453,103.568 462.5,100.5 Z"/></g>
<g><path style="opacity:0.349" fill="#8f8181" d="M 798.5,89.5 C 800.802,99.2626 797.802,106.929 789.5,112.5C 789.5,111.833 789.5,111.167 789.5,110.5C 791.167,108.167 793.167,106.167 795.5,104.5C 796.992,99.5997 797.992,94.5997 798.5,89.5 Z"/></g>
<g><path style="opacity:0.206" fill="#635959" d="M 166.5,109.5 C 167.765,110.514 168.431,112.014 168.5,114C 168.333,115.5 168.167,117 168,118.5C 167.617,119.056 167.117,119.389 166.5,119.5C 166.5,116.5 166.5,113.5 166.5,110.5C 166.5,110.167 166.5,109.833 166.5,109.5 Z"/></g>
<g><path style="opacity:0.094" fill="#897b7b" d="M 429.5,106.5 C 428.461,109.921 426.461,112.588 423.5,114.5C 424.794,111.219 426.794,108.552 429.5,106.5 Z"/></g>
<g><path style="opacity:0.233" fill="#5f5656" d="M 681.5,109.5 C 683.826,110.145 685.493,111.478 686.5,113.5C 684.152,113.408 682.486,112.408 681.5,110.5C 681.5,110.167 681.5,109.833 681.5,109.5 Z"/></g>
<g><path style="opacity:0.02" fill="#6c6161" d="M 747.5,104.5 C 748.167,104.5 748.833,104.5 749.5,104.5C 748.167,107.167 748.167,109.833 749.5,112.5C 747.156,112.494 745.822,111.327 745.5,109C 746.505,107.891 747.172,106.391 747.5,104.5 Z"/></g>
<g><path style="opacity:0.004" fill="#9e8e8e" d="M 85.5,108.5 C 85.4533,111.568 84.9533,114.568 84,117.5C 83.1841,118.823 82.0174,119.489 80.5,119.5C 80.5,118.5 80.5,117.5 80.5,116.5C 81.9063,116.027 82.573,115.027 82.5,113.5C 83.9348,112.087 84.9348,110.42 85.5,108.5 Z"/></g>
<g><path style="opacity:0.427" fill="#706464" d="M 348.5,109.5 C 350.03,110.211 351.363,111.211 352.5,112.5C 352.631,113.239 352.464,113.906 352,114.5C 349.842,113.511 348.675,111.844 348.5,109.5 Z"/></g>
<g><path style="opacity:0.525" fill="#5c5252" d="M 718.5,110.5 C 718.5,110.833 718.5,111.167 718.5,111.5C 717.713,113.104 716.38,113.771 714.5,113.5C 715.211,111.799 716.545,110.799 718.5,110.5 Z"/></g>
<g><path style="opacity:0.502" fill="#5e5656" d="M 789.5,110.5 C 789.5,111.167 789.5,111.833 789.5,112.5C 786.886,112.925 784.886,114.258 783.5,116.5C 782.893,116.376 782.56,116.043 782.5,115.5C 783.948,112.736 786.281,111.069 789.5,110.5 Z"/></g>
<g><path style="opacity:0.02" fill="#827575" d="M 238.5,101.5 C 238.833,101.5 239.167,101.5 239.5,101.5C 239.477,103.927 238.977,106.26 238,108.5C 237.667,108.167 237.333,107.833 237,107.5C 232.648,114.138 226.482,118.138 218.5,119.5C 218.5,118.5 218.5,117.5 218.5,116.5C 228.234,115.327 234.901,110.327 238.5,101.5 Z"/></g>
<g><path style="opacity:0.363" fill="#332d2d" d="M 527.5,109.5 C 527.5,110.833 527.5,112.167 527.5,113.5C 529.167,113.5 530.833,113.5 532.5,113.5C 532.5,114.5 532.5,115.5 532.5,116.5C 529.5,116.5 526.5,116.5 523.5,116.5C 523.5,115.5 523.5,114.5 523.5,113.5C 525.274,112.63 526.607,111.297 527.5,109.5 Z"/></g>
<g><path style="opacity:0.039" fill="#998989" d="M 576.5,91.5 C 580.023,98.7303 583.356,106.064 586.5,113.5C 586.5,114.5 586.5,115.5 586.5,116.5C 584.732,114.078 583.232,111.412 582,108.5C 580.042,103.165 578.208,97.8319 576.5,92.5C 576.5,92.1667 576.5,91.8333 576.5,91.5 Z"/></g>
<g><path style="opacity:0.216" fill="#353030" d="M 592.5,111.5 C 593.451,112.919 593.784,114.585 593.5,116.5C 591.167,116.5 588.833,116.5 586.5,116.5C 586.5,115.5 586.5,114.5 586.5,113.5C 589.082,113.975 591.082,113.308 592.5,111.5 Z"/></g>
<g><path style="opacity:0.161" fill="#746969" d="M 686.5,113.5 C 689.807,114.051 693.14,114.384 696.5,114.5C 696.5,115.167 696.5,115.833 696.5,116.5C 693.788,116.263 691.288,116.263 689,116.5C 687.955,115.627 687.122,114.627 686.5,113.5 Z"/></g>
<g><path style="opacity:0.067" fill="#9e8d8d" d="M 712.5,113.5 C 713.167,113.5 713.833,113.5 714.5,113.5C 714.573,115.027 713.906,116.027 712.5,116.5C 712.5,115.5 712.5,114.5 712.5,113.5 Z"/></g>
<g><path style="opacity:0.09" fill="#8b7c7c" d="M 756.5,116.5 C 754.728,114.71 752.728,113.377 750.5,112.5C 750.56,111.957 750.893,111.624 751.5,111.5C 754.804,111.678 756.471,113.344 756.5,116.5 Z"/></g>
<g><path style="opacity:0.905" fill="#353030" d="M 696.5,114.5 C 700.167,114.5 703.833,114.5 707.5,114.5C 707.167,115.167 706.833,115.833 706.5,116.5C 703.167,116.5 699.833,116.5 696.5,116.5C 696.5,115.833 696.5,115.167 696.5,114.5 Z"/></g>
<g><path style="opacity:0.294" fill="#a49292" d="M 707.5,114.5 C 708.167,114.5 708.833,114.5 709.5,114.5C 709.5,115.167 709.5,115.833 709.5,116.5C 708.5,116.5 707.5,116.5 706.5,116.5C 706.833,115.833 707.167,115.167 707.5,114.5 Z"/></g>
<g><path style="opacity:0.063" fill="#4a4242" d="M 712.5,113.5 C 712.5,114.5 712.5,115.5 712.5,116.5C 711.5,116.5 710.5,116.5 709.5,116.5C 709.5,115.833 709.5,115.167 709.5,114.5C 710.391,113.89 711.391,113.557 712.5,113.5 Z"/></g>
<g><path style="opacity:0.714" fill="#706464" d="M 765.5,114.5 C 765.5,115.167 765.5,115.833 765.5,116.5C 763.5,116.5 761.5,116.5 759.5,116.5C 760.918,114.692 762.918,114.025 765.5,114.5 Z"/></g>
<g><path style="opacity:0.907" fill="#322d2d" d="M 765.5,114.5 C 769.5,114.5 773.5,114.5 777.5,114.5C 777.167,115.167 776.833,115.833 776.5,116.5C 772.833,116.5 769.167,116.5 765.5,116.5C 765.5,115.833 765.5,115.167 765.5,114.5 Z"/></g>
<g><path style="opacity:0.369" fill="#928484" d="M 777.5,114.5 C 779.179,114.285 780.179,114.952 780.5,116.5C 779.167,116.5 777.833,116.5 776.5,116.5C 776.833,115.833 777.167,115.167 777.5,114.5 Z"/></g>
<g><path style="opacity:0.433" fill="#312b2b" d="M 22.5,116.5 C 26.1667,116.5 29.8333,116.5 33.5,116.5C 33.5,117.5 33.5,118.5 33.5,119.5C 29.6286,119.815 25.9619,119.482 22.5,118.5C 22.5,117.833 22.5,117.167 22.5,116.5 Z"/></g>
<g><path style="opacity:0.298" fill="#6a6060" d="M 35.5,112.5 C 35.2155,114.415 35.5489,116.081 36.5,117.5C 36.0269,118.906 35.0269,119.573 33.5,119.5C 33.5,118.5 33.5,117.5 33.5,116.5C 34.1667,115.167 34.8333,113.833 35.5,112.5 Z"/></g>
<g><path style="opacity:0.43" fill="#2d2828" d="M 70.5,116.5 C 73.8333,116.5 77.1667,116.5 80.5,116.5C 80.5,117.5 80.5,118.5 80.5,119.5C 77.1667,119.5 73.8333,119.5 70.5,119.5C 70.5,118.5 70.5,117.5 70.5,116.5 Z"/></g>
<g><path style="opacity:0.413" fill="#2f2a2a" d="M 128.5,110.5 C 141.167,110.5 153.833,110.5 166.5,110.5C 166.5,113.5 166.5,116.5 166.5,119.5C 151.5,119.5 136.5,119.5 121.5,119.5C 121.5,118.5 121.5,117.5 121.5,116.5C 136.167,116.5 150.833,116.5 165.5,116.5C 165.5,114.833 165.5,113.167 165.5,111.5C 152.989,111.829 140.655,111.495 128.5,110.5 Z"/></g>
<g><path style="opacity:0.447" fill="#302a2a" d="M 186.5,116.5 C 197.167,116.5 207.833,116.5 218.5,116.5C 218.5,117.5 218.5,118.5 218.5,119.5C 207.833,119.5 197.167,119.5 186.5,119.5C 186.5,118.5 186.5,117.5 186.5,116.5 Z"/></g>
<g><path style="opacity:0.18" fill="#5c5252" d="M 423.5,114.5 C 421.656,117.687 418.989,119.687 415.5,120.5C 417.373,117.551 420.039,115.551 423.5,114.5 Z"/></g>
<g><path style="opacity:0.247" fill="#4b4343" d="M 354.5,115.5 C 357.262,117.725 360.262,119.725 363.5,121.5C 363.483,123.028 362.816,123.528 361.5,123C 358.572,120.91 356.239,118.41 354.5,115.5 Z"/></g>
<g><path style="opacity:0.255" fill="#6c6060" d="M 397.5,112.5 C 398.888,119.747 396.221,124.414 389.5,126.5C 391.319,124.631 393.152,122.631 395,120.5C 394.947,117.325 395.78,114.658 397.5,112.5 Z"/></g>
<g><path style="opacity:0.118" fill="#897b7b" d="M 313.5,109.5 C 313.833,109.5 314.167,109.5 314.5,109.5C 317.039,115.689 320.372,121.356 324.5,126.5C 325.779,129.112 327.445,131.445 329.5,133.5C 328.761,133.631 328.094,133.464 327.5,133C 320.601,125.688 315.934,117.855 313.5,109.5 Z"/></g>
<g><path style="opacity:0.541" fill="#464040" d="M 364.5,121.5 C 365.849,122.953 367.515,123.953 369.5,124.5C 366.324,126.273 364.657,125.273 364.5,121.5 Z"/></g>
<g><path style="opacity:0.02" fill="#5d5454" d="M 370.5,107.5 C 374.198,108.677 377.864,110.01 381.5,111.5C 381.177,115.226 381.511,118.893 382.5,122.5C 383.549,124.216 384.882,125.549 386.5,126.5C 383.763,126.63 381.763,125.464 380.5,123C 379.618,119.559 379.284,116.059 379.5,112.5C 375.788,112.123 372.788,110.456 370.5,107.5 Z"/></g>
<g><path style="opacity:0.024" fill="#766a6a" d="M 456.5,121.5 C 455.943,124.05 454.61,126.05 452.5,127.5C 452.684,124.663 454.018,122.663 456.5,121.5 Z"/></g>
<g><path style="opacity:0.145" fill="#514949" d="M 370.5,124.5 C 373.007,125.892 375.673,126.892 378.5,127.5C 376.712,128.622 374.712,128.789 372.5,128C 371.177,127.184 370.511,126.017 370.5,124.5 Z"/></g>
<g><path style="opacity:0.412" fill="#3d3737" d="M 415.5,120.5 C 414.741,122.431 413.407,123.931 411.5,125C 407.863,125.768 404.363,126.934 401,128.5C 400.235,128.43 399.735,128.097 399.5,127.5C 404.934,125.412 410.267,123.079 415.5,120.5 Z"/></g>
<g><path style="opacity:0.212" fill="#665b5b" d="M 383.5,127.5 C 386.833,127.5 390.167,127.5 393.5,127.5C 393.5,128.167 393.5,128.833 393.5,129.5C 389.671,130.069 386.337,129.402 383.5,127.5 Z"/></g>
<g><path style="opacity:0.741" fill="#3d3636" d="M 381.5,127.5 C 382.167,127.5 382.833,127.5 383.5,127.5C 386.337,129.402 389.671,130.069 393.5,129.5C 390.024,130.643 386.358,130.81 382.5,130C 381.748,129.329 381.414,128.496 381.5,127.5 Z"/></g>
<g><path style="opacity:0.404" fill="#443c3c" d="M 442.5,135.5 C 440.5,134.833 438.5,134.167 436.5,133.5C 436.369,132.624 436.702,131.957 437.5,131.5C 439.071,132.309 440.738,132.643 442.5,132.5C 442.5,133.5 442.5,134.5 442.5,135.5 Z"/></g>
<g><path style="opacity:0.012" fill="#7b6f6f" d="M 452.5,128.5 C 450.835,131.49 448.502,133.824 445.5,135.5C 446.03,132.969 447.364,130.969 449.5,129.5C 450.325,128.614 451.325,128.281 452.5,128.5 Z"/></g>
<g><path style="opacity:0.012" fill="#635959" d="M 434.5,133.5 C 432.053,133.615 430.053,134.615 428.5,136.5C 428.561,134.408 429.561,132.908 431.5,132C 433.157,131.275 434.157,131.775 434.5,133.5 Z"/></g>
<g><path style="opacity:0.047" fill="#6a5f5f" d="M 339.5,133.5 C 337.315,133.704 335.315,134.37 333.5,135.5C 333.5,134.5 333.5,133.5 333.5,132.5C 335.735,132.205 337.735,132.539 339.5,133.5 Z"/></g>
<g><path style="opacity:0.141" fill="#544b4b" d="M 365.5,144.5 C 365.167,144.5 364.833,144.5 364.5,144.5C 356.828,142.884 350.161,139.384 344.5,134C 343.552,133.517 342.552,133.351 341.5,133.5C 341.62,132.414 342.287,131.747 343.5,131.5C 346.196,132.851 348.53,134.684 350.5,137C 355.771,139.238 360.771,141.738 365.5,144.5 Z"/></g>
<g><path style="opacity:0.196" fill="#524949" d="M 422.5,139.5 C 419.389,141.559 416.056,143.392 412.5,145C 412.085,147.026 411.085,148.526 409.5,149.5C 409.167,149.5 408.833,149.5 408.5,149.5C 408.781,147.037 409.781,144.87 411.5,143C 415.161,142.171 418.495,140.671 421.5,138.5C 422.107,138.624 422.44,138.957 422.5,139.5 Z"/></g>
<g><path style="opacity:0.045" fill="#897a7a" d="M 364.5,144.5 C 364.833,144.5 365.167,144.5 365.5,144.5C 366.566,146.701 367.233,149.035 367.5,151.5C 365.464,149.794 364.464,147.461 364.5,144.5 Z"/></g>
<g><path style="opacity:0.106" fill="#a89696" d="M 408.5,149.5 C 408.833,149.5 409.167,149.5 409.5,149.5C 409.821,152.577 408.821,154.91 406.5,156.5C 406.5,155.833 406.5,155.167 406.5,154.5C 407.931,153.22 408.598,151.553 408.5,149.5 Z"/></g>
<g><path style="opacity:0.092" fill="#8b7c7c" d="M 367.5,152.5 C 368.833,152.5 369.5,153.167 369.5,154.5C 369.5,155.5 369.5,156.5 369.5,157.5C 368.069,156.22 367.402,154.553 367.5,152.5 Z"/></g>
<g><path style="opacity:0.524" fill="#423c3c" d="M 369.5,154.5 C 371.764,156.681 374.431,158.015 377.5,158.5C 374.833,158.5 372.167,158.5 369.5,158.5C 369.5,158.167 369.5,157.833 369.5,157.5C 369.5,156.5 369.5,155.5 369.5,154.5 Z"/></g>
<g><path style="opacity:0.008" fill="#403838" d="M 406.5,154.5 C 406.5,155.167 406.5,155.833 406.5,156.5C 406.5,157.167 406.5,157.833 406.5,158.5C 405.167,158.5 403.833,158.5 402.5,158.5C 403.833,157.167 405.167,155.833 406.5,154.5 Z"/></g>
</svg>
